<svg width="205" height="105" viewBox="0 0 205 105" fill="none" xmlns="http://www.w3.org/2000/svg">
    <path d="M204.168 0H0v105h204.168V0z" fill="#fff"/>
    <path d="M198.335 5.833h-93.334v93.333h93.334V5.834z" fill="#CB003D"/>
    <path d="M187.943 33.83c-.428-3.603-2.12-5.478-6.116-5.478h-5.082l-.691 20.354h3.702s.343-9.44.362-9.887l4.68.005c.042.411.742 9.883.742 9.883h3.824s-1.315-13.983-1.421-14.877zm-7.758 1.608c.008-.412.085-3.31.091-3.701h.706c2.726 0 3.183.481 3.438 3.701h-4.235zM143.009 61.785c-.428-3.602-2.121-5.478-6.116-5.478h-5.082l-.692 20.355h3.703s.342-9.44.361-9.888l4.68.005c.043.412.743 9.883.743 9.883h3.824s-1.315-13.983-1.421-14.877zm-7.758 1.61c.009-.414.085-3.312.092-3.703l.662-.041c2.727 0 3.226.523 3.481 3.743h-4.235zM115.223 28.352v20.35h3.742V31.735h4.638v16.965h3.749v-20.35h-12.129zM154.816 35.44h-2.037c-.843 0-1.467-.19-1.866-.57-.281-.264-.419-.621-.419-1.088v-5.43h-3.751v5.81c0 1.34.53 2.472 1.576 3.372 1.031.891 2.294 1.34 3.76 1.34h2.738v9.828h3.746v-20.35h-3.746v7.087h-.001zM162.708 28.352v3.384h3.11v16.965h3.789V31.736h3.11v-3.384h-10.009zM157.213 56.307v6.504h-5.139v-6.504h-3.735v20.358h3.735v-10.47h5.139v10.47h3.736V56.307h-3.736zM120.698 62.967c-.645 0-1.217.016-1.733.04v-3.315h6.717v-3.385h-10.459v20.351H120.904c5.664 0 6.541-5.035 6.541-6.899 0-2.205-.872-6.792-6.747-6.792zm-.453 10.547c-.364 0-1.279-.083-1.279-.083V66.266s.294-.069.616-.069c1.898 0 4.143-.112 4.143 3.654-.001 3.454-2.466 3.663-3.48 3.663zM143.991 37.809c-.065-2.91-.565-4.998-1.339-6.479-1.22-2.532-3.164-3.478-5.172-3.502l-.014-.002h-.065l-.013.002c-2.007.024-3.951.97-5.172 3.502-.775 1.481-1.275 3.568-1.34 6.479l-.008.658c.002 1.814.204 3.572.599 4.989 1.029 4.17 3.403 5.645 5.883 5.69l.05.002.033-.001.033.001.051-.002c2.479-.045 4.855-1.52 5.882-5.69.395-1.417.598-3.176.599-4.99l.001.001c.002-.005-.008-.654-.008-.658zm-9.384.755v-.002c.031-5.508 1.392-7.321 2.828-7.349 1.436.028 2.797 1.84 2.828 7.349v.002c-.031 5.379-1.392 7.217-2.828 7.245-1.436-.028-2.797-1.866-2.828-7.245zM179.596 76.658l-4.505-11.93c.936-.694 1.664-2.029 1.987-3.357.314-1.292.727-5.065.727-5.065h-3.684c-.023.384-.103 1.675-.218 2.988-.169 1.946-.744 3.74-2.734 3.74h-1.536c-.003-.163 0-6.728 0-6.728h-3.746v20.359h3.746V66.329s1.981.002 2.262 0l3.679 10.33h4.022z" fill="#fff"/>
    <path d="M99.167 5.833H5.833v93.333h93.334V5.834z" fill="#001688"/>
    <path d="M34.169 35.988c.689 1.521 1.815 3.081 4.901 5.188.684.472 1.446 1.451.87 2.831-.586 1.378-1.67 3.337-1.024 4.101.655.763 2.978 1.16 4.868.401 0 0 .397 1.194 1.09 1.957 0 0-.326.659-1.416.327 0 0 .397.98-.15 2.033 0 0-1.268-.218-1.81-1.382 0 0-.51.907-1.527 1.235 0 0-.835-.431-.649-2.107 0 0-.62 1.491-2.503 1.743 0 0-1.092-1.377.323-3.229 0 0-1.017.91-2.861.472 0 0-.293-.941 1.373-2.25 0 0-1.889-.072-2.611-1.668 0 0 .797-.982 2.754-.762 0 0-1.81-.402-2.21-2.578 0 0 1.304-.835 3.374.507 0 0-.368-.688-1.235-1.377-.868-.691-1.922-2.613-1.557-5.442zM41.763 57.876a5.088 5.088 0 0 1-.632-1.081c.325 2.64.437 4.42 1.865 6.13 0 0 .86-1.144.305-3.923a2.754 2.754 0 0 1-.767-.358s.325 1.128.119 2.262c0 0-.51-.372-.89-3.03zM39.297 57.602a8.244 8.244 0 0 1-.672-.994c-.117 1.535-.525 5.567.83 6.83 0 0 .926-.677 1.25-6.565-.195.332-.54.682-.708.875 0 0 .227 1.866-.444 3.186 0 0-.67-.511-.256-3.332zM36.075 60.684c1.132-1.36 1.475-5.436 1.475-5.436a8.26 8.26 0 0 0 .477-.347c.057-.053.123-.106.182-.164 0 .146.007.303.022.456-.166 2.455-.358 4.981-1.126 6.24-.748 1.234-2.13 1.874-2.13 1.874-1.292-2.302.27-5.388 1.582-7.535.158-.06.321-.138.489-.221-.459 1.651-1.334 3.618-.971 5.133zM32.865 53.611a1.803 1.803 0 0 0 .138.755c-1.084 1.063-1.888 2.08-3.493 4.31-1.607 2.23-4.152 2.32-4.152 2.32.247-1.807.736-3.234 2.1-4.775 1.362-1.538 3.105-2.945 4.383-3.875.326.147.758.244 1.3.18a.642.642 0 0 0 .125-.02c-.17.227-.275.452-.326.66-.973.555-3.786 1.98-4.926 4.283 0 0 1.78-.563 4.85-3.838zM30.849 51.362l.105-.191c.04-.064.073-.121.115-.175-1.047.405-4.773 1.812-5.978 2.435-1.208.628-2.952 2.044-3.9 4.928 0 0 2.515.223 4.59-1.492 2.076-1.721 4.495-4.116 5.527-4.877a1.707 1.707 0 0 1-.238-.267s-2.81 2.485-5.778 3.562c0 0 .634-1.155 1.808-1.99 1.429-1.014 2.498-1.355 3.748-1.933zM28.715 49.658c.042-.099.083-.193.125-.28-1.23.248-4.3.617-5.677 1.036-1.37.424-3.854 1.427-5.327 4.24 0 0 2.163.666 6.242-1.253 4.08-1.921 5.362-2.321 6.14-2.528a2.842 2.842 0 0 1-1.287-.395c-1.629.726-3.806 1.581-5.966 1.64 0 0 1.062-.752 2.186-1.227 1.21-.506 2.548-.969 3.564-1.233zM28.822 47.638c.398.187.705.28 1.228.334a3.142 3.142 0 0 0-.794.734c-1.44.415-3.893.866-7.94 1.158-4.04.289-6.199-.452-6.199-.452 1.409-.862 3.655-1.736 5.177-2.03 1.519-.293 5.51-.26 7.258-.5.02.02.232.193.577.4-1.472.132-4.608.278-6.222 1.1 0 0 2.982.397 6.915-.744zM28.515 45.312c.204-.12.45-.24.753-.352-2.05-.618-4.86-1.61-9.093-1.885-3.1-.204-5.338-.026-6.5.274 0 0 2.829 1.99 6.056 2.69 3.233.705 5.856.261 7.774.278.123-.189.268-.403.494-.616-2.244.015-5.974-.566-7.308-1.012 0 0 3.254-.677 7.824.623zM28.505 42.904c.011.058.253 1.213 1.59 1.85-2.877-1.257-8.538-1.98-11.585-3.248-4.114-1.71-4.866-3.845-4.866-3.845 3.561-.095 6.44.774 8.66 1.456 2.598.796 6.555 2.274 7.94 2.892a3.082 3.082 0 0 0-1.567.49c-1.933-.742-2.834-1.056-4.588-1.547-1.39-.39-2.411-.464-3.278-.546 0 0 1.219.805 3.227 1.445 1.99.638 2.851.745 4.467 1.053zM28.29 39.766c.114.203.454.689.59.882-4.548-.761-9.547-4.2-11.093-6.331-1.545-2.133-1.11-5.313-1.11-5.313 1.5.3 4.76 3.111 5.604 3.958.845.842 3.393 3.325 5.158 4.708l.55 1.6a186.294 186.294 0 0 0-4.423-3.415c-.859-.648-2.147-1.57-3.43-2.005 0 0 1.18 1.535 2.133 2.286 1.1.869 2.218 1.622 3.134 2.126.815.448 1.234.701 2.887 1.504z" fill="#fff"/>
    <path d="M41.11 52.49c.139-.122.261-.24.356-.346.21.262.914 1.138 1.261 2.013.26.746.54 1.76.677 2.342.14.578.55 1.788.804 2.203 0 0-1.107.14-1.927-.82-.805-.938-1.075-1.885-1.203-2.854-.105-.76-.066-1.813.032-2.538zM39.365 52.634c.205.276.404.388.423.4l.152.077.152-.054c.14-.042.266-.092.383-.152.164.447.231.663.268 1.043.05.507.15 1.305-.038 1.956-.23.793-.708 1.279-.97 1.582 0 0-.724-.799-.931-1.453-.215-.69-.292-1.49-.026-2.312.147-.445.379-.852.587-1.087zM36.87 52.71a3.686 3.686 0 0 0 1.724-.674c.095.26.24.61.136 1.108-.114.498-.458 1.048-.95 1.446-.753.596-1.75 1.157-2.854.987 0 0-.254-.831 1.944-2.866zM36.031 51.325c.093.738.444 1.202.468 1.24-.257.307-1.187 1.904-3.127 1.64 0 0-.53-1.09.766-1.958.873-.586 1.293-.706 1.893-.922zM36.2 49.957c-.516.13-1.19.182-2.013-.011l-.225-.053-.07-.217c-.998.813-2.183.95-2.591 1.688 0 0 .498.918 1.794.768 1.296-.157 2.265-.763 2.96-1.632.027-.13.085-.375.144-.543zM33.963 48.814c.18-.274.308-.697.695-1.125-.854-.15-1.629-.161-2.633.034-1.193.223-2.412.505-3.023 2.325 0 0 .764.651 2.159.37 1.184-.246 2.211-.753 2.802-1.604zM33.454 46.843a3.008 3.008 0 0 1-.775-1.038l-.098-.228c-1.036-.421-2.113-.637-3.175-.247-1.055.398-1.334.85-1.598 1.247 0 0 1.17.98 2.512 1.013 1.348.045 2.592-.346 3.134-.747zM33.766 44.717c.177-.068.376-.131.601-.177-.45-.401-.907-1.02-1.123-1.938-.482.112-1.61.112-2.105-.075-.5-.191-1.476-.2-2.239.302 0 0 .253 1.338 1.977 1.794 1.628.427 2.225.318 2.889.094zM33.145 42.11l.227-.146c.031-.02.418-.258 1.075-.309-.553-.412-1.88-1.522-2.811-2.056-1.027-.572-2.723-1.331-3.585-1.445 0 0 .81 2.124 1.749 2.983.982.891 1.665 1.22 3.345.972zM34.893 41.131c-.418-.535-.743-1.276-.982-2.153-.196-.71-.642-2.475-.908-2.932-.263-.459-1.22-2.058-3.083-2.557 0 0-.498 2.089.44 3.735.806 1.424 2.469 2.924 4.533 3.907zM45.243 50.828c.23.235.407.362.823.571 0 0 .595 1.136-.127 2.509-.723 1.372-1.33 2.77-1.62 3.55 0 0-.386-.059-.818-2.206-.29-1.455-.658-1.819-1.044-2.318.42.212.758.274.787.28l.288.05.132-.258a2.915 2.915 0 0 0 .312-1.728c.67.016 1.026-.322 1.166-.494.009-.018.02-.029.027-.044l.074.087z" fill="#fff"/>
    <path d="M29.396 34.362c-.006.203-.013.422-.006.657l.038.512c-1.104-1.405-2.42-3.097-3.677-4.662-.863-1.071-1.593-1.719-2.4-2.24.676 1.983 1.903 3.565 2.767 4.355.86.789 2.117 2.12 3.336 2.933l.118.402c.095.368.24.748.445 1.103.282.501.658.996 1.098 1.474a20.69 20.69 0 0 0-1.17-.54l-.379-.156c-3.36-1.783-6.684-5.47-8.034-8.038-1.352-2.566-.787-5.546-.432-7.14 1.523 1.292 3.717 3.835 4.674 5.22 1.177 1.697 2.688 4.102 3.618 6.06l.004.06zM76.483 45.312a4.568 4.568 0 0 0-.749-.352c2.045-.618 4.86-1.61 9.088-1.885 3.103-.204 5.347-.026 6.502.274 0 0-2.824 1.99-6.056 2.69-3.23.705-5.855.261-7.772.278a3.354 3.354 0 0 0-.495-.616c2.245.015 5.977-.566 7.31-1.012 0 0-3.254-.677-7.828.623zM76.493 42.904c-.011.058-.25 1.213-1.59 1.85 2.875-1.257 8.542-1.98 11.585-3.248 4.116-1.71 4.868-3.845 4.868-3.845-3.562-.095-6.44.774-8.662 1.456-2.595.796-6.556 2.274-7.94 2.892.521.019 1.088.172 1.571.49 1.933-.742 2.831-1.056 4.589-1.547 1.385-.39 2.41-.464 3.275-.546 0 0-1.218.805-3.227 1.445-1.993.638-2.853.745-4.469 1.053zM76.711 39.766c-.113.203-.456.689-.589.882 4.546-.761 9.547-4.2 11.09-6.331 1.55-2.133 1.111-5.313 1.111-5.313-1.502.3-4.76 3.111-5.604 3.958-.843.842-3.392 3.325-5.158 4.708l-.55 1.6a174.408 174.408 0 0 1 4.426-3.415c.858-.648 2.144-1.57 3.426-2.005 0 0-1.179 1.535-2.132 2.286-1.094.869-2.212 1.622-3.134 2.126-.814.448-1.231.701-2.886 1.504zM75.608 34.362c.005.203.011.422.002.657l-.04.512c1.103-1.405 2.424-3.097 3.68-4.662.863-1.071 1.594-1.719 2.402-2.24-.682 1.983-1.902 3.565-2.769 4.355-.863.789-2.112 2.12-3.334 2.933l-.12.402a4.464 4.464 0 0 1-.443 1.103 8.008 8.008 0 0 1-1.1 1.474c.354-.177.759-.366 1.17-.54l.378-.156c3.36-1.783 6.689-5.47 8.035-8.038 1.345-2.566.792-5.546.433-7.14-1.525 1.292-3.72 3.835-4.678 5.22-1.177 1.697-2.683 4.102-3.617 6.06v.06zM33.684 54.636c-1.384 1.383-4.3 4.488-4.028 7.855 0 0 2.712-.846 3.826-2.834 1.118-1.984 1.807-3.23 2.275-3.677-.301.039-.603.039-.895-.01l-.245-.039c-.689 1.255-2.05 3.302-3.277 4.017 0 0-.314-1.66 3.293-5.026a2.71 2.71 0 0 1 .225-.47c-.329.12-.706.188-1.127.181M70.832 35.988c-.689 1.521-1.82 3.081-4.896 5.188-.692.472-1.452 1.451-.873 2.831.577 1.378 1.67 3.337 1.014 4.101-.65.763-2.972 1.16-4.864.401 0 0-.393 1.194-1.083 1.957 0 0 .323.659 1.414.327 0 0-.398.98.144 2.033 0 0 1.27-.218 1.811-1.382 0 0 .509.907 1.529 1.235 0 0 .838-.431.653-2.107 0 0 .613 1.491 2.504 1.743 0 0 1.089-1.377-.33-3.229 0 0 1.017.91 2.867.472 0 0 .29-.941-1.382-2.25 0 0 1.893-.072 2.62-1.668 0 0-.8-.982-2.757-.762 0 0 1.81-.402 2.209-2.578 0 0-1.306-.835-3.37.507 0 0 .358-.688 1.229-1.377.872-.691 1.927-2.613 1.561-5.442zM63.238 57.876c.274-.366.477-.73.635-1.081-.324 2.64-.443 4.42-1.87 6.13 0 0-.858-1.144-.307-3.923.243-.069.509-.185.772-.358 0 0-.326 1.128-.126 2.262 0 0 .52-.372.896-3.03zM65.705 57.602c.171-.214.503-.67.67-.994.119 1.535.522 5.567-.83 6.83 0 0-.926-.677-1.253-6.565.198.332.541.682.705.875 0 0-.222 1.866.448 3.186 0 0 .67-.511.26-3.332zM68.928 60.684c-1.14-1.36-1.48-5.436-1.48-5.436a5.441 5.441 0 0 1-.658-.511c0 .146-.006.303-.019.456.16 2.455.359 4.981 1.122 6.24.75 1.234 2.128 1.874 2.128 1.874 1.297-2.302-.268-5.388-1.577-7.535a4.753 4.753 0 0 1-.487-.221c.457 1.651 1.332 3.618.971 5.133zM72.132 53.611c.013.262-.04.48-.075.586a2.63 2.63 0 0 1-.058.169c1.08 1.063 1.887 2.08 3.49 4.31 1.608 2.23 4.152 2.32 4.152 2.32-.242-1.807-.735-3.234-2.097-4.775-1.362-1.538-3.102-2.945-4.384-3.875-.33.147-.757.244-1.3.18a.632.632 0 0 1-.127-.02c.17.227.272.452.33.66.968.555 3.79 1.98 4.924 4.283 0 0-1.78-.563-4.855-3.838zM74.155 51.362l-.108-.191a1.534 1.534 0 0 0-.111-.175c1.045.405 4.773 1.812 5.977 2.435 1.204.628 2.946 2.044 3.892 4.928 0 0-2.51.223-4.587-1.492-2.073-1.721-4.496-4.116-5.525-4.877.103-.095.18-.189.242-.267 0 0 2.808 2.485 5.774 3.562 0 0-.633-1.155-1.803-1.99-1.433-1.014-2.499-1.355-3.751-1.933zM76.28 49.658a3.188 3.188 0 0 0-.122-.28c1.23.248 4.304.617 5.68 1.036 1.366.424 3.853 1.427 5.326 4.24 0 0-2.162.666-6.246-1.253-4.083-1.921-5.357-2.321-6.135-2.528a2.87 2.87 0 0 0 1.288-.395c1.628.726 3.806 1.581 5.966 1.64 0 0-1.068-.752-2.186-1.227-1.219-.506-2.553-.969-3.57-1.233zM76.182 47.638c-.402.187-.707.28-1.229.334.285.185.557.417.8.734 1.437.415 3.883.866 7.931 1.158 4.045.289 6.2-.452 6.2-.452-1.408-.862-3.652-1.736-5.172-2.03-1.524-.293-5.513-.26-7.265-.5-.018.02-.233.193-.575.4 1.475.132 4.607.278 6.226 1.1 0 0-2.985.397-6.916-.744z" fill="#fff"/>
    <path d="M63.89 52.49a7.026 7.026 0 0 1-.362-.346c-.205.262-.907 1.138-1.25 2.013-.262.746-.543 1.76-.679 2.342-.144.578-.558 1.788-.809 2.203 0 0 1.11.14 1.93-.82.806-.938 1.077-1.885 1.209-2.854.092-.76.066-1.813-.04-2.538zM65.631 52.634c-.202.276-.4.388-.42.4l-.147.077-.16-.054a2.537 2.537 0 0 1-.379-.152c-.163.447-.224.663-.268 1.043-.053.507-.15 1.305.036 1.956.233.793.704 1.279.97 1.582 0 0 .727-.799.936-1.453.213-.69.292-1.49.029-2.312-.15-.445-.389-.852-.597-1.087zM68.133 52.71a3.692 3.692 0 0 1-1.727-.674c-.091.26-.24.61-.13 1.108.107.498.452 1.048.954 1.446.741.596 1.743 1.157 2.848.987 0 0 .254-.831-1.945-2.866zM68.965 51.325c-.087.738-.44 1.202-.47 1.24.26.307 1.19 1.904 3.142 1.64 0 0 .52-1.09-.769-1.958-.882-.586-1.298-.706-1.903-.922zM68.795 49.957c.519.13 1.195.182 2.02-.011l.226-.053.065-.217c1 .813 2.186.95 2.593 1.688 0 0-.498.918-1.791.768-1.296-.157-2.273-.763-2.965-1.632a3.538 3.538 0 0 0-.148-.543zM71.042 48.814c-.186-.274-.318-.697-.701-1.125a6.815 6.815 0 0 1 2.635.034c1.195.223 2.412.505 3.025 2.325 0 0-.771.651-2.164.37-1.18-.246-2.208-.753-2.795-1.604zM71.546 46.843c.3-.262.576-.599.776-1.038l.098-.228c1.039-.421 2.118-.637 3.17-.247 1.06.398 1.337.85 1.61 1.247 0 0-1.173.98-2.522 1.013-1.347.045-2.59-.346-3.132-.747zM71.236 44.717a3.88 3.88 0 0 0-.606-.177c.46-.401.91-1.02 1.13-1.938.481.112 1.61.112 2.108-.075.497-.191 1.473-.2 2.233.302 0 0-.248 1.338-1.979 1.794-1.629.427-2.227.318-2.886.094zM71.853 42.11l-.225-.146c-.032-.02-.418-.258-1.081-.309.56-.412 1.879-1.522 2.82-2.056 1.024-.572 2.718-1.331 3.587-1.445 0 0-.812 2.124-1.758 2.983-.976.891-1.662 1.22-3.343.972zM70.107 41.131c.418-.535.742-1.276.983-2.153.2-.71.644-2.475.911-2.932.267-.459 1.22-2.058 3.085-2.557 0 0 .496 2.089-.444 3.735-.81 1.424-2.466 2.924-4.535 3.907zM59.765 50.828c-.241.235-.417.362-.83.571 0 0-.598 1.136.126 2.509a35.702 35.702 0 0 1 1.621 3.55s.387-.059.816-2.206c.293-1.455.662-1.819 1.043-2.318-.42.212-.752.274-.783.28l-.287.05-.133-.258a2.858 2.858 0 0 1-.331-1.364c0-.13.006-.253.019-.364-.67.016-1.03-.322-1.163-.494-.015-.018-.026-.029-.033-.044l-.065.087z" fill="#fff"/>
    <path d="M71.32 54.636c1.381 1.383 4.3 4.488 4.024 7.855 0 0-2.713-.846-3.824-2.834-1.12-1.984-1.804-3.23-2.275-3.677.296.039.599.039.893-.01l.25-.039c.686 1.255 2.048 3.302 3.276 4.017 0 0 .31-1.66-3.293-5.026a3.168 3.168 0 0 0-.227-.47c.328.12.704.188 1.125.181M50.383 27.772c0-.249.95-.454 2.117-.454 1.17 0 2.117.205 2.117.454 0 .247-.946.45-2.117.45-1.167 0-2.117-.203-2.117-.45zM43.203 30.207c0-.14.607-.246 1.36-.246.755 0 1.361.107 1.361.246 0 .136-.605.244-1.361.244-.753 0-1.36-.108-1.36-.244zM52.914 28.763c0 .23-.182.416-.414.416a.419.419 0 0 1-.419-.416c0-.23.19-.416.42-.416.23 0 .413.186.413.416zM50.232 27.33c-.701-1.676-1.175-2.919-1.157-3.332.012-.25.311-.437.595-.522.278-.09.526-.106.714.037.367.281.705 2.548.833 3.49-.355.067-.57.112-.985.327zM51.519 26.967c.177-.023.36-.03.546-.038-.11-.9-.425-2.4-.605-2.989-.185-.593-.418-1.019-.807-1.126 0 0 .301.825.47 1.676.163.853.287 1.666.396 2.477zM50.453 29.898c-1.083.63-2.296.535-2.296.535.235-.43.456-.828 1.133-1.311.678-.485 1.783-.607 2.217-.546-.097.322-.539 1.02-1.054 1.322zm-1.163.075c.777-.183 1.572-1.014 1.572-1.014-1.255.181-1.572 1.014-1.572 1.014zM42.875 30.537s1.346.499 2.695.435c1.343-.068 3.826-.096 4.624-.486 0 0-.13.505-.77.797 0 0 .338 0 .666.288 0 0-.194.42-.766.639 0 0 1.027 1.064 2.127.987 0 0-.507.631-1.631.388-1.125-.242-1.486-.871-1.676-1.113 0 0 .146.602.077.845 0 0-.493-.03-.877-.514 0 0 .28.484.337.892 0 0-.31.035-.866-.292 0 0 .116.302.138.648 0 0-1.3-.416-1.93-1.007 0 0-.008.408.023.64 0 0-2.016-.204-2.171-3.147zm3.533 1.14v-.087c-1.065.136-2.318.081-2.318.081.062.395.228.695.508.879.07-.863 1.81-.873 1.81-.873zM42.565 30.742c.05.637.213 1.265.437 1.71 0 0-.793-.595-.986-1.102-.199-.503-.245-.852.55-.608zM42.916 32.774c.532.242 1.004.817 1.004.817-.803.182-1.16.412-1.16.412a2.288 2.288 0 0 0-2.81.006c-.834-.468-.994-1.622-.577-2.232.415-.612 1.356-.505 1.802-.398.282.893 1.264 1.179 1.741 1.395zm-1.943.388a.331.331 0 0 0 .337-.33c0-.184-.15-.33-.337-.33a.326.326 0 0 0-.322.33c-.001.183.143.33.322.33zM44.095 33.789s.561.748.972 1.078c0 0-2.074-.02-2.596 1.775 0 0-.719-1.1-.195-1.816.566-.772 1.084-.867 1.82-1.037z" fill="#fff"/>
    <path d="M46.37 34.234s.67.198.894.257c0 0 .007-.389-.007-.575.202.05.452.114.668.135 0 0 .667 1.491 1.19 2.093 0 0 .03.331-.262.833 0 0-.38-.882-1.058-1.59-.383-.395-.629-.598-1.425-1.153zM44.608 33.916c.218.058 1.287.394 1.8.767.651.462 1.098.998 1.027 1.914 0 0-.522-.727-1.102-1.055-.457-.262-1.286-.986-1.725-1.626zM44.623 27.169c.198 0 .578.095.578.41 0 .321-.492 1.09-.627 1.43h-.013c-.13-.34-.63-1.109-.63-1.43 0-.316.387-.41.584-.41h.108zM44.19 29.648c-.092-.447-.27-1.607-.544-1.863-.26-.246-.65-.27-.84-.259a.36.36 0 0 0-.318.47c.077.269.936 1.553 1.047 1.716.2-.036.162-.022.654-.064zM44.951 29.648c.097-.447.27-1.607.545-1.863.26-.246.65-.27.84-.259.196.013.401.21.323.47-.084.269-.941 1.553-1.056 1.716-.196-.036-.159-.022-.652-.064zM45.504 25.61h-.67v-.738h-.539v.739h-.675v.466h.675v.867h.538v-.867h.671v-.466zM37.396 30.385c0-.147.006-.287.028-.429.05-.36.055-.668.016-.925-.483.188-.809.302-1.471 1.374 0 0 1.057-.652 1.427-.02zM38.318 32.079c.015-.266.19-1.107.411-1.695.27-.73.112-1.784-.213-2.423-.314-.618-.485-1.198-.433-1.838 0 0-.622.21-.984.431-.057.743.375 1.486.58 1.907.244.5.194 1.15.14 1.549-.093.675.045 1.393.499 2.069zM38.389 26.408c-.025-.086-.025-.32.02-.414 0 0 .989-.96 1.817-1.122.523-.109.844.124 1 .253 0 0-.29-.034-.731.328-.445.358-.996.79-1.406.898-.413.11-.5.077-.7.057zM41.309 25.196c.366.371.683.765.674 1.104-.005.353-.414 1.238-.628 1.575-.215.335-.53.777-.494 1.313.02.266.206.541.427.769 0 0-1.21-.286-1.358-1.032-.13-.668.158-1.133.352-1.503.179-.348.734-1.157.877-1.494.13-.306.196-.56.15-.732zM48.363 33.598c.238.855.65 1.658 1.056 2.287.363.578.595 1.51.561 1.826 0 0 .544-1.204.27-2.054-.222-.66-.807-1.646-1.887-2.06zM49.722 33.877s.829.017 1.216.272c.497.328.97 1.046 1.153 1.907 0 0-.838-.146-1.249-.558-.416-.414-.925-1.03-1.12-1.62zM45.436 35.376c-.159.012-.584.11-.79.173 0 0 .703.205 1.057.497.302.246.561.628.679 1.274.174.902.702 1.872.86 2.164l.065-.012c-.095-.62.287-1.908.392-2.095 0 0-.561-.349-.82-.714-.19-.268-.52-.715-1.443-1.287zM49.105 37.312c.203.473.753 1.312.496 2.184-.255.877-.83 1.252-1.18 1.996 0 0-.276-1.342-.219-2.374.063-1.035.44-1.434.903-1.806zM50.695 37.345s.823 1.597.972 2.222c.144.62.01 1.033-.272 1.411-.274.375-.75.78-1.19 1.569 0 0-.507-.672-.568-1.023-.059-.35.036-1.19.147-1.539.108-.358.542-1.487.91-2.64zM51.117 42.441c-.18.196-1.143 1.352-1.27 1.689-.131.335-.354.974-.058 1.42.303.443.99 1.147 1.584 1.448 0 0-.648-1.015-.58-1.846.038-.534.451-1.009.53-1.333.08-.321.03-.87-.206-1.378zM49.232 41.803c.147.205.406.703.441 1.186.036.478-.043.863-.304 1.563-.326.883-.838 1.866-1.076 2.31 0 0-.45-.646-.701-1.223 0 0 .706-.97 1.009-1.652.347-.806.492-1.549.63-2.184zM48.908 41.43s-.305 2.273-1.643 3.96c-.906 1.142-1.64 1.54-2.129 1.54-.734 0-1.472-.61-1.717-1.313-.25-.697-.169-1.786.306-2.172 0 0 .438 1.365 1.38 1.413 1.065.062 2.433-1.133 3.803-3.428z" fill="#fff"/>
    <path d="M47.808 40.48a3.414 3.414 0 0 1 0 1.618c-.11.448-.382 1.029-.905 1.358-.452.282-1.523.349-1.926-.659 0 0 1.948.148 2.831-2.316zM50.995 49.644c.266.685 1.216 1.549 1.214 2.083-.016 1.411-.637 2.277-.781 2.742 0 0-1.133-.897-1.335-1.926-.102-.529.017-2.115.902-2.9zM49.728 50.644c.13-.368.548-1.367 1.029-1.715 0 0 .615-1.811-1.365-2.93 0 0-.815 1.08-1.03 2.097-.217 1.024.86 1.632 1.366 2.548zM47.25 46.064c-.319.39-.77.918-1.118 1.084 0 0-.118.81-.054 1.349.106.8.614 1.614.835 2.211 0 0 .867-1.132.967-1.796.098-.666.086-1.212.118-1.533 0 0-.482-.784-.748-1.315zM44.963 49.952c-.245-.377-1.035-1.745-1.045-2.744 0 0 .975.52 1.793.136 0 0 .106 1.3-.048 1.739-.134.356-.3.567-.7.869zM45.19 50.227c.159-.14.549-.497.712-.686 0 0 .647 1.187.757 1.535 0 0-.325.084-.682-.175a5.278 5.278 0 0 1-.787-.674zM48.192 49.53c-.077.3-1.126 1.756-1.306 1.935 0 0 .077.527.468 1.286.388.755.928 1.288 1.216 1.556 0 0 .65-1.129.842-1.622.214-.567.191-1.127.1-1.337-.223-.49-.981-1.202-1.32-1.817zM49.766 53.34c.232.468.931 1.237 1.04 1.844.087.476.01.867-.12 1.2-.132.323-.548.966-.828 1.454 0 0-.958-.903-1.168-1.547-.16-.486-.1-1.175.13-1.604.228-.432.727-.9.946-1.346zM47.062 53.209c.245.543.839 1.082.974 1.555.157.561.21.915-.06 1.569-.242.569-.533.904-.63 1.254 0 0-.777-1.008-.908-1.426-.128-.418-.17-1.107-.01-1.542.156-.443.44-1.009.634-1.41zM50.888 57.041s-1.34 1.616-1.31 2.471c.042 1.066.75 1.779.847 2.434 0 0 .7-.794.97-1.326.3-.597.526-1.108.453-1.786-.085-.68-.262-1.113-.96-1.793zM48.42 56.882c.212.31.807 1.365.64 1.99-.167.633-.827 1.518-1.05 1.895 0 0-.526-1.084-.648-1.584-.116-.493-.009-1.306 1.058-2.3zM61.802 30.207c0-.14-.61-.246-1.366-.246-.75 0-1.364.107-1.364.246 0 .136.613.244 1.364.244.755 0 1.366-.108 1.366-.244zM52.514 26.022c.09-.608.795-1.912.795-2.48a.808.808 0 0 0-.808-.81.808.808 0 0 0-.813.81c0 .568.71 1.872.799 2.48h.027zM54.768 27.33c.706-1.676 1.175-2.919 1.156-3.332-.01-.25-.309-.437-.587-.522-.284-.09-.538-.106-.721.037-.366.281-.71 2.548-.834 3.49.361.067.576.112.986.327zM53.483 26.967a6.293 6.293 0 0 0-.543-.038c.111-.9.42-2.4.604-2.989.18-.593.413-1.019.806-1.126 0 0-.303.825-.47 1.676-.163.853-.29 1.666-.397 2.477zM53.494 28.576c.437-.06 1.541.06 2.22.546.678.482.897.88 1.129 1.31 0 0-1.213.095-2.295-.534-.513-.303-.954-1-1.054-1.322zm.649.383s.79.83 1.571 1.014c0 0-.32-.832-1.571-1.014zM59.955 33.683c.032-.231.02-.639.02-.639-.63.591-1.927 1.006-1.927 1.006.02-.345.13-.648.13-.648-.548.328-.857.293-.857.293.057-.408.338-.893.338-.893-.387.485-.881.514-.881.514-.068-.243.077-.845.077-.845-.19.242-.548.873-1.675 1.114-1.129.243-1.63-.388-1.63-.388 1.098.077 2.123-.987 2.123-.987-.57-.22-.762-.639-.762-.639.332-.29.667-.29.667-.29-.643-.29-.776-.795-.776-.795.805.39 3.285.418 4.632.486 1.346.064 2.687-.436 2.687-.436-.153 2.943-2.166 3.147-2.166 3.147zm.445-1.133c.283-.184.443-.485.512-.879 0 0-1.256.055-2.326-.081v.087s1.747.01 1.814.873zM62.436 30.742c-.049.637-.215 1.265-.435 1.71 0 0 .794-.595.984-1.102.194-.503.244-.852-.55-.608zM63.828 31.38c.447-.107 1.386-.215 1.8.398.421.61.258 1.763-.578 2.231 0 0-1.271-1.091-2.808-.005 0 0-.36-.23-1.165-.413 0 0 .476-.575 1.01-.817.472-.217 1.459-.502 1.74-1.395zm.527 1.451a.331.331 0 0 0-.662 0 .33.33 0 0 0 .662 0zM60.904 33.789s-.556.748-.968 1.078c0 0 2.072-.02 2.595 1.775 0 0 .72-1.1.192-1.816-.562-.772-1.08-.867-1.819-1.037z" fill="#fff"/>
    <path d="M58.63 34.234s-.67.198-.894.257c0 0-.012-.389.012-.575-.203.05-.452.114-.67.135 0 0-.67 1.491-1.19 2.093 0 0-.031.331.26.833 0 0 .379-.882 1.056-1.59.384-.395.628-.598 1.426-1.153zM60.388 33.916c-.209.058-1.28.394-1.802.767-.645.462-1.09.998-1.023 1.914 0 0 .527-.727 1.103-1.055.46-.262 1.288-.986 1.722-1.626zM60.375 27.169c-.197 0-.581.095-.581.41 0 .321.498 1.09.63 1.43h.013c.132-.34.63-1.109.63-1.43 0-.316-.385-.41-.584-.41h-.108zM60.813 29.648c.09-.447.263-1.607.541-1.863.262-.246.65-.27.843-.259.197.013.4.21.313.47-.075.269-.935 1.553-1.05 1.716-.198-.036-.157-.022-.648-.064zM60.05 29.648c-.095-.447-.27-1.607-.546-1.863-.264-.246-.652-.27-.845-.259a.36.36 0 0 0-.314.47c.077.269.932 1.553 1.05 1.716.2-.036.159-.022.655-.064zM59.501 25.61h.667v-.738h.537v.739h.672v.466h-.672v.867h-.537v-.867h-.667v-.466zM51.559 21.23h.666v-.74h.546v.74h.67v.464h-.67v.872h-.546v-.872h-.666v-.463zM67.61 30.385a5.756 5.756 0 0 0-.032-.429 3.356 3.356 0 0 1-.019-.925c.484.188.808.302 1.474 1.374 0 0-1.058-.652-1.423-.02zM66.68 32.079c-.015-.266-.187-1.107-.405-1.695-.272-.73-.119-1.784.207-2.423.314-.618.491-1.198.433-1.838 0 0 .625.21.984.431.06.743-.372 1.486-.576 1.907-.248.5-.198 1.15-.142 1.549.094.675-.051 1.393-.501 2.069zM66.614 26.408c.02-.086.018-.32-.026-.414 0 0-.983-.96-1.813-1.122a1.13 1.13 0 0 0-1.005.253s.294-.034.736.328c.442.358.99.79 1.406.898.414.11.505.077.702.057zM63.69 25.196c-.368.371-.68.765-.673 1.104.005.353.414 1.238.628 1.575.216.335.53.777.49 1.313-.016.266-.204.541-.42.769 0 0 1.206-.286 1.35-1.032.134-.668-.147-1.133-.344-1.503-.18-.348-.74-1.157-.878-1.494-.128-.306-.198-.56-.153-.732zM56.64 33.598a8.855 8.855 0 0 1-1.056 2.287c-.368.578-.599 1.51-.556 1.826 0 0-.55-1.204-.27-2.054.213-.66.797-1.646 1.882-2.06zM55.276 33.877s-.824.017-1.21.272c-.501.328-.978 1.046-1.159 1.907 0 0 .839-.146 1.253-.558.417-.414.923-1.03 1.116-1.62zM59.566 35.376c.16.012.582.11.789.173 0 0-.706.205-1.056.497-.3.246-.566.628-.682 1.274-.17.902-.702 1.872-.862 2.164l-.059-.012c.098-.62-.292-1.908-.39-2.095 0 0 .56-.349.814-.714.187-.268.525-.715 1.446-1.287zM55.896 37.312c-.201.473-.751 1.312-.5 2.184.26.877.834 1.252 1.183 1.996 0 0 .28-1.342.218-2.374-.062-1.035-.436-1.434-.901-1.806zM52.51 39.759c.04-.514 1.225-1.747 1.166-2.415-.062-.672-.95-1.141-1.17-1.239h-.012c-.216.098-1.106.568-1.17 1.239-.062.668 1.127 1.9 1.162 2.415h.024zM54.306 37.345s-.824 1.597-.972 2.222c-.146.62-.01 1.033.27 1.411.277.375.75.78 1.193 1.569 0 0 .506-.672.569-1.023.061-.35-.038-1.19-.149-1.539-.108-.358-.547-1.487-.911-2.64zM52.508 43.52c.375-.324.71-.806.819-1.092.101-.286.13-.702-.121-1.022-.3-.382-.674-.81-.698-1.158h-.018c-.028.348-.399.776-.699 1.158-.251.32-.224.736-.114 1.022.102.286.44.768.817 1.093h.014zM53.885 42.441c.18.196 1.142 1.352 1.272 1.689.13.335.35.974.053 1.42-.3.443-.984 1.147-1.585 1.448 0 0 .65-1.015.584-1.846-.045-.534-.456-1.009-.534-1.333-.074-.321-.022-.87.21-1.378zM55.765 41.803c-.15.205-.404.703-.444 1.186-.031.478.046.863.308 1.563.33.883.84 1.866 1.072 2.31 0 0 .454-.646.703-1.223 0 0-.703-.97-1.007-1.652-.349-.806-.49-1.549-.632-2.184zM56.096 41.43s.302 2.273 1.64 3.96c.904 1.142 1.642 1.54 2.128 1.54.733 0 1.473-.61 1.721-1.313.244-.697.168-1.786-.307-2.172 0 0-.44 1.365-1.382 1.413-1.06.062-2.43-1.133-3.8-3.428z" fill="#fff"/>
    <path d="M57.191 40.48c-.112.406-.144 1.03 0 1.618.112.448.386 1.029.91 1.358.45.282 1.514.349 1.922-.659 0 0-1.945.148-2.832-2.316zM52.5 47.23c.276-.133.507-.232.828-.714.242-.38.477-1.08.347-1.582-.166-.617-.497-.863-.7-1.25-.163.154-.264.273-.466.388h-.01c-.203-.116-.306-.234-.474-.387-.205.386-.533.632-.701 1.249-.13.501.103 1.202.349 1.582.315.482.55.58.827.713zM52.5 51.063c.134-.605 1.395-1.767 1.276-2.402-.172-.948-.784-.748-1.267-1.147H52.5c-.487.4-1.105.199-1.28 1.147-.111.635 1.142 1.797 1.274 2.402h.007zM54.007 49.644c-.267.685-1.22 1.549-1.213 2.083.018 1.411.632 2.277.781 2.742 0 0 1.132-.897 1.33-1.926.107-.529-.014-2.115-.898-2.9zM55.269 50.644c-.129-.368-.545-1.367-1.029-1.715 0 0-.616-1.811 1.366-2.93 0 0 .813 1.08 1.032 2.097.216 1.024-.863 1.632-1.37 2.548zM57.755 46.064c.315.39.761.918 1.114 1.084 0 0 .115.81.053 1.349-.107.8-.617 1.614-.833 2.211 0 0-.87-1.132-.973-1.796-.1-.666-.078-1.212-.11-1.533 0 0 .477-.784.749-1.315zM60.033 49.952c.247-.377 1.043-1.745 1.052-2.744 0 0-.977.52-1.796.136 0 0-.107 1.3.054 1.739.126.356.295.567.69.869zM59.81 50.227c-.16-.14-.55-.497-.705-.686 0 0-.653 1.187-.757 1.535 0 0 .319.084.676-.175.355-.259.434-.33.786-.674zM56.806 49.53c.078.3 1.126 1.756 1.306 1.935 0 0-.083.527-.47 1.286-.385.755-.924 1.288-1.215 1.556 0 0-.646-1.129-.84-1.622-.219-.567-.192-1.127-.094-1.337.215-.49.976-1.202 1.313-1.817zM52.509 58.146c.1-.398.706-.873.953-1.566.15-.41.145-.888-.015-1.215-.192-.383-.871-1.318-.947-1.586-.086.268-.754 1.203-.95 1.586-.163.327-.167.806-.019 1.215.255.693.86 1.168.96 1.566h.018zM55.23 53.34c-.228.468-.925 1.237-1.036 1.844a2.2 2.2 0 0 0 .116 1.2c.132.323.557.966.832 1.454 0 0 .956-.903 1.166-1.547.161-.486.1-1.175-.131-1.604-.23-.432-.726-.9-.946-1.346zM57.945 53.209c-.248.543-.844 1.082-.978 1.555-.16.561-.211.915.059 1.569.244.569.529.904.63 1.254 0 0 .776-1.008.902-1.426.138-.418.172-1.107.018-1.542-.163-.443-.442-1.009-.631-1.41zM52.501 65.866c.049-.492 1.067-2.015 1.114-3.63.024-.81-.693-2.07-1.105-2.553h-.023c-.405.482-1.126 1.743-1.103 2.554.049 1.614 1.064 3.137 1.117 3.629zM54.118 57.041s1.336 1.616 1.306 2.471c-.04 1.066-.754 1.779-.848 2.434 0 0-.703-.794-.97-1.326-.3-.597-.53-1.108-.444-1.786.075-.68.25-1.113.956-1.793zM56.578 56.882c-.214.31-.805 1.365-.639 1.99.175.633.83 1.518 1.048 1.895 0 0 .527-1.084.65-1.584.118-.493.006-1.306-1.059-2.3z" fill="#fff"/>
    <path d="M53.412 68.457c.083-1.254.797-2.008.92-2.658.14-.72.092-1.407-.464-2.237-.456 1.546-.948 2.678-1.337 3.45-.014.018-.021.043-.03.066-.011-.023-.016-.048-.032-.067a20.345 20.345 0 0 1-1.334-3.448c-.558.829-.605 1.516-.468 2.236.127.65.839 1.404.92 2.658.077 1.26-1.337 1.736-1.337 1.736.475.173 1.02.252 1.884-.568.158-.147.276-.311.366-.484.092.173.21.337.367.484.86.82 1.407.741 1.885.568 0 0-1.417-.477-1.34-1.736zM48.962 60.104c.146.47.586 1.34.644 1.605.107.497-.038 1.1-.945 1.74 0 0-.588-.412-.82-.951-.217-.508-.091-.867.133-1.126.228-.263.763-.874.988-1.268zM50.87 61.964c0 .253-.187 1.674-.59 2.384-.568.99-1.403 1.723-2.133 1.723-.675 0-.82-.404-1.153-.564 0 0 .17-.863.931-1.086.934-.282 2.365-1.402 2.945-2.457z" fill="#fff"/>
    <path d="M48.431 63.777c-.156-.121-.292-.202-.478-.42 0 0-.72.264-1.312.663-.596.4-1.177 1.083-1.49 1.435 0 0 .888.23 1.452-.028 0 0 .204-.849.838-1.229.14-.082.581-.214.99-.421zM47.698 63.05c-.142-.215-.424-.61-.363-1.23 0 0-1.252.797-1.617 1.093-.38.309-1.16 1.113-1.335 1.378 0 0 .947-.209 1.673-.453.794-.263 1.344-.617 1.642-.788zM45.579 64.399c-.67.245-2.187.486-2.817.673-.633.19-1.093.514-1.697 1.174 0 0 .927.26 1.426.416 0 0 .788-.536 1.651-.869.566-.218.84-.805 1.437-1.394zM44.171 68.866c.145-.163.328-.346.187-.722-.098-.278-.645-.577-.972-.734-.543-.261-2.049-.665-2.543-.809 0 0-.245.285-.373.588-.056.117.019.238.231.275.42.073 1.427-.115 1.675.043.261.174.166.403.166.637 0 0 .462-.284.75-.22.405.086.648.278.88.942zM42.83 66.77c.108.036.696.214 1.27.576 0 0 .251-.097.378-.33.122-.223.635-.985 1.112-1.087 0 0-.405-.038-.637-.112 0 0-.487.126-.835.268a8.028 8.028 0 0 0-1.288.685zM46.714 65.808c-.09.042-.245.119-.599.134 0 0-1.321.915-1.477 1.834-.13.78.282 1.156.478 1.253.2.102 1.127.482 1.727-.758 0 0-1.025.335-1.304-.154-.277-.497.177-1.214.456-1.418.361-.277 1.02-.46 1.416-.39 0 0-.318-.307-.697-.501z" fill="#fff"/>
    <path d="M38.045 76.315c.161-.675.34-1.381.647-2.032.6-1.268 2.066-4.638 5.123-5.235.29-.054-.33-.768-.6-.73-.277.032-.823.386-1.062.549 0 0 0-.72-.008-.852-.008-.133-.123-.175-.242-.171-.118.001-.856-.004-1.092.263-.695.809-1.874 2.979-2.54 4.594-.667 1.614-1.12 2.113-1.825 1.864-.704-.25-1.125-1.057-2.35-.811-.425.087-.9.371-1.268.793.103.197.233.437.809.437.57 0 1.664.239 2.275.668.614.427 1.255.567 2.133.663zM50.256 65.86c.07.524.322 1.012.602 1.52 0 0-.933 4.295-4.297 4.628 0 0 .067-.89 1.062-1.569.998-.677 2.487-1.732 2.38-3.328 0 0-.265.054-.746.654-.476.598-1.525 2.327-3.154 2.34 0 0 .244-.81.963-1.276.721-.466 1.635-1.064 2.048-1.786.416-.718.853-1.05 1.142-1.183zM48.668 81.512l2.049 2.868 1.554-2.761-.55-.985c-.406.724-.842 1.508-1.088 1.938-.192-.264-.71-.99-1.388-1.938l-.577.878z" fill="#fff"/>
    <path d="M48.146 79.081c-2-2.794-4.466-6.254-4.715-6.605l.774-.558-2.44-.936.042 2.664.826-.595 4.932 6.913.581-.883zM31.298 63.375c.601-.657 1.621-.087 2.652.863 1.037.949 1.684 1.921 1.086 2.576-.562.61-1.623.089-2.663-.857-1.034-.951-1.685-1.926-1.075-2.582z" fill="#fff"/>
    <path d="M32.962 75.055a.967.967 0 0 1-.098-.082c-.548-.48-.861-1.22-.861-2.03a2.821 2.821 0 0 1 2.817-2.818 2.818 2.818 0 0 1 2.812 2.819c0 .21-.04.554-.04.554.13-.24.591-1.316.685-1.515a3.597 3.597 0 0 0-3.457-2.625 3.593 3.593 0 0 0-3.228 2.018c.22-1.422.928-2.7 1.428-3.172.6-.564 1.618-.746 1.618-.746-.668.11-1.55-.304-2.535-1.213-.937-.855-1.415-1.607-1.445-2.232.057.884.03 1.38-.222 2.1-.34.98-1.268 2.792-.935 4.836.18 1.123.994 2.794 2.357 4.158.288.305.396.758.431.994 0 0 2.004 0 2.48.045 0 0 .477-.045.47-.34-.005-.298-.27-.374-.51-.374-.237 0-1.233.023-1.767-.377zM44.058 75.74c-1.291.461-2.578.714-3.799.9-.798.12-1.57.165-2.32.126.013.123.013.286-.058.406 0 0 .15.176.15.37.755.028 1.543-.015 2.346-.14 1.337-.205 2.74-.473 4.152-1.009l-.47-.654zM46.173 75.64c1.714-.933 3.384-2.38 4.892-4.683l.27-.453c-.413.184-.938.053-.938.053a1.73 1.73 0 0 0-.128.204c-1.404 2.074-2.962 3.38-4.55 4.235l.454.643zM34.885 76.375c-.235-.038-.987-.017-1.438.048-.494.08-1.054.178-1.115.453-.054.258.123.532.373.924.153.242.522.102.725.026.202-.073 1.362-.695 1.544-.897.19-.205.267-.495-.089-.554zM36.065 77.138a.875.875 0 0 0-.74-.076c-.315.117-1.456.789-1.53 1.108-.08.314.08.47.257.542.176.07.389.137.549.154.285.021.563-.144.71-.323.145-.181.68-.825.754-.973.075-.141.117-.351 0-.432zM36.205 77.846c-.167.187-.627.744-.682.838-.052.092.028.238.172.218.142-.015.932-.095 1.383-.401.45-.31.752-.907.44-1.12-.31-.215-.794-.113-1.313.465zM36.459 76.133c-.151-.033-.747-.182-.871.013-.165.243-.05.504.413.729.458.217 1.326.395 1.503.159.165-.244-.07-.645-1.045-.9zM56.036 60.104c-.148.47-.589 1.34-.648 1.605-.103.497.038 1.1.947 1.74 0 0 .586-.412.82-.951.22-.508.095-.867-.133-1.126-.227-.263-.757-.874-.986-1.268zM54.124 61.964c0 .253.186 1.674.595 2.384.568.99 1.4 1.723 2.13 1.723.68 0 .825-.404 1.154-.564 0 0-.17-.863-.934-1.086-.93-.282-2.363-1.402-2.945-2.457z" fill="#fff"/>
    <path d="M56.567 63.777c.157-.121.288-.202.476-.42 0 0 .725.264 1.318.663.59.4 1.168 1.083 1.489 1.435 0 0-.89.23-1.455-.028 0 0-.205-.849-.84-1.229-.136-.082-.578-.214-.988-.421zM57.303 63.05c.139-.215.421-.61.357-1.23 0 0 1.248.797 1.623 1.093.378.309 1.157 1.113 1.334 1.378 0 0-.948-.209-1.675-.453-.794-.263-1.343-.617-1.64-.788zM59.419 64.399c.674.245 2.18.486 2.817.673.634.19 1.096.514 1.7 1.174 0 0-.934.26-1.426.416 0 0-.788-.536-1.658-.869-.56-.218-.837-.805-1.433-1.394zM60.826 68.866c-.144-.163-.326-.346-.19-.722.1-.278.65-.577.981-.734.544-.261 2.049-.665 2.538-.809 0 0 .244.285.375.588.055.117-.024.238-.23.275-.423.073-1.43-.115-1.678.043-.263.174-.17.403-.17.637 0 0-.455-.284-.752-.22-.396.086-.646.278-.874.942zM62.167 66.77c-.111.036-.696.214-1.269.576 0 0-.254-.097-.379-.33-.12-.223-.636-.985-1.11-1.087 0 0 .403-.038.631-.112 0 0 .491.126.843.268.347.142.78.357 1.284.685zM58.28 65.808c.09.042.246.119.597.134 0 0 1.327.915 1.48 1.834.138.78-.277 1.156-.478 1.253-.201.102-1.123.482-1.723-.758 0 0 1.022.335 1.302-.154.277-.497-.173-1.214-.452-1.418-.365-.277-1.021-.46-1.423-.39 0 0 .318-.307.697-.501z" fill="#fff"/>
    <path d="M66.952 76.315c-.162-.675-.337-1.381-.647-2.032-.596-1.268-2.063-4.638-5.126-5.235-.287-.054.328-.768.61-.73.273.032.818.386 1.06.549 0 0 0-.72.007-.852.008-.133.12-.175.235-.171.12.001.859-.004 1.09.263.702.809 1.878 2.979 2.546 4.594.668 1.614 1.122 2.113 1.823 1.864.706-.25 1.131-1.057 2.352-.811.428.087.897.371 1.272.793-.107.197-.239.437-.809.437-.578 0-1.672.239-2.28.668-.613.427-1.252.567-2.133.663zM54.737 65.86c-.064.524-.318 1.012-.593 1.52 0 0 .93 4.295 4.299 4.628 0 0-.072-.89-1.066-1.569-1-.677-2.49-1.732-2.383-3.328 0 0 .266.054.743.654.484.598 1.535 2.327 3.155 2.34 0 0-.238-.81-.96-1.276-.719-.466-1.636-1.064-2.05-1.786-.411-.718-.847-1.05-1.145-1.183zM52.505 70.027c.2.57 1.469 2.37 2.025 2.882.562.512 1.92 1.873 2.646 2.551 0 0-2.069-.513-3.232-1.568 0 0-.827.48-1.432.48h-.028c-.605 0-1.433-.48-1.433-.48-1.161 1.055-3.226 1.568-3.226 1.568.722-.678 2.08-2.038 2.638-2.551.561-.512 1.835-2.313 2.03-2.882h.012z" fill="#fff"/>
    <path d="M52.51 74.795c.457 0 .889-.181 1.135-.287-.246.515-.705 1.314-1.146 1.643h-.006c-.441-.329-.9-1.128-1.14-1.643.24.106.672.287 1.13.287h.027z" fill="#fff"/>
    <path d="M54.28 84.38l8.087-11.33.82.596.05-2.664-2.449.936.778.558-7.202 10.096-3.662-6.636-.451.69-3.259 4.925-.817-.545-.01 2.619 2.474-.98-.83-.55c.449-.68 2.218-3.347 2.808-4.245l3.664 6.53z" fill="#fff"/>
    <path d="M55.757 79.929a733.77 733.77 0 0 1-1.374-2.08c-.204.383-.62 1.13-1.084 1.955l-.578-1.034 1.573-2.834.457.69 1.617 2.447-.611.856zM57.427 80.666l.58.886.814-.546.014 2.618-2.475-.98.827-.55c-.085-.129-.21-.331-.376-.573l.616-.855zM73.702 63.375c-.603-.657-1.623-.087-2.66.863-1.032.949-1.68 1.921-1.079 2.576.559.61 1.632.089 2.665-.857 1.029-.951 1.68-1.926 1.074-2.582z" fill="#fff"/>
    <path d="M72.037 75.055c.036-.028.063-.053.094-.082.548-.48.868-1.22.868-2.03a2.825 2.825 0 0 0-2.82-2.818 2.82 2.82 0 0 0-2.813 2.819c0 .21.04.554.04.554-.126-.24-.593-1.316-.685-1.515a3.589 3.589 0 0 1 6.683-.607c-.22-1.422-.922-2.7-1.427-3.172-.599-.564-1.618-.746-1.618-.746.666.11 1.55-.304 2.536-1.213.936-.855 1.42-1.607 1.444-2.232-.057.884-.032 1.38.217 2.1.343.98 1.274 2.792.945 4.836-.184 1.123-1 2.794-2.355 4.158-.293.305-.403.758-.435.994 0 0-2.008 0-2.487.045 0 0-.473-.045-.465-.34.01-.298.27-.374.51-.374.234 0 1.237.023 1.768-.377zM58.822 75.636c-1.709-.937-3.38-2.376-4.889-4.68l-.27-.453c.414.185.943.053.943.053.03.04.092.144.123.205 1.406 2.07 2.962 3.38 4.55 4.235l-.457.64zM60.936 75.736c1.293.465 2.58.718 3.8.904.799.12 1.579.165 2.32.126-.012.123-.012.286.061.406 0 0-.146.176-.146.371a12.454 12.454 0 0 1-2.352-.141c-1.327-.205-2.739-.473-4.146-1.012l.463-.654zM70.112 76.375c.24-.038.992-.017 1.44.048.493.08 1.054.178 1.116.453.053.258-.125.532-.371.924-.162.242-.527.102-.725.026-.205-.073-1.365-.695-1.553-.897-.182-.205-.259-.495.093-.554zM68.928 77.138a.894.894 0 0 1 .746-.076c.311.117 1.45.789 1.53 1.108.074.314-.083.47-.26.542-.173.07-.39.137-.548.154-.283.021-.56-.144-.707-.323-.149-.181-.677-.825-.761-.973-.072-.141-.112-.351 0-.432zM68.794 77.846c.164.187.628.744.68.838.056.092-.028.238-.171.218-.146-.015-.929-.095-1.38-.401-.451-.31-.751-.907-.44-1.12.304-.215.789-.113 1.311.465zM68.54 76.133c.15-.033.744-.182.872.013.16.243.046.504-.415.729-.456.217-1.325.395-1.5.159-.17-.244.07-.645 1.044-.9z" fill="#fff"/>
</svg>
