<svg width="34" height="47" viewBox="0 0 34 47" fill="none" xmlns="http://www.w3.org/2000/svg">
    <path d="M2.427 38.565c-.84-.84-.84-2.201 0-3.04L21.89 16.06c.84-.84 2.201-.84 3.04 0l6.01 6.008c.84.84.84 2.2 0 3.04L11.476 44.575c-.84.84-2.201.84-3.04 0l-6.01-6.01z" fill="#fff"/>
    <path d="M9.956 47a3.922 3.922 0 0 1-2.791-1.156l-6.009-6.008A3.922 3.922 0 0 1 0 37.045c0-1.055.41-2.046 1.156-2.792l19.465-19.465a3.921 3.921 0 0 1 2.791-1.155c1.054 0 2.045.41 2.79 1.155l6.01 6.01a3.92 3.92 0 0 1 1.156 2.79c0 1.054-.411 2.045-1.157 2.79L12.747 45.845A3.919 3.919 0 0 1 9.956 47zm13.456-29.773a.347.347 0 0 0-.25.103L3.699 36.795a.345.345 0 0 0-.104.25c0 .066.018.163.104.249l6.009 6.008a.345.345 0 0 0 .249.104.344.344 0 0 0 .249-.104L29.67 23.837a.347.347 0 0 0 .103-.25.346.346 0 0 0-.103-.248l-6.009-6.009a.347.347 0 0 0-.249-.103z" fill="#231F20"/>
    <path d="M2.427 31.837a2.15 2.15 0 0 1 0-3.04L21.89 9.33c.84-.84 2.201-.84 3.04 0l6.01 6.009c.84.84.84 2.2 0 3.04L11.476 37.845c-.84.84-2.201.84-3.04 0l-6.01-6.008z" fill="#fff"/>
    <path d="M9.956 40.272a3.922 3.922 0 0 1-2.791-1.156l-6.009-6.008A3.921 3.921 0 0 1 0 30.316c0-1.054.41-2.045 1.156-2.79L20.621 8.06a3.921 3.921 0 0 1 2.791-1.155c1.054 0 2.045.41 2.79 1.155l6.01 6.01a3.92 3.92 0 0 1 1.156 2.79c0 1.054-.41 2.045-1.156 2.79L12.747 39.117a3.922 3.922 0 0 1-2.791 1.156zM23.412 10.5a.347.347 0 0 0-.25.103L3.699 30.067a.345.345 0 0 0-.104.25c0 .066.018.163.104.248l6.009 6.009a.345.345 0 0 0 .249.104.345.345 0 0 0 .249-.104L29.67 17.109a.347.347 0 0 0 .103-.25.346.346 0 0 0-.103-.248l-6.009-6.009a.346.346 0 0 0-.249-.103z" fill="#231F20"/>
    <path d="M2.427 24.932a2.15 2.15 0 0 1 0-3.04L21.89 2.427c.84-.84 2.201-.84 3.04 0l6.01 6.009c.84.839.84 2.2 0 3.04L11.476 30.94c-.84.84-2.201.84-3.04 0l-6.01-6.009z" fill="#fff"/>
    <path d="M9.956 33.367a3.922 3.922 0 0 1-2.791-1.155l-6.009-6.01A3.921 3.921 0 0 1 0 23.413a3.92 3.92 0 0 1 1.156-2.791L20.621 1.156A3.923 3.923 0 0 1 23.412 0c1.054 0 2.045.41 2.79 1.156l6.01 6.008a3.92 3.92 0 0 1 1.156 2.791c0 1.054-.41 2.046-1.156 2.791L12.746 32.212a3.92 3.92 0 0 1-2.79 1.155zM23.412 3.595a.347.347 0 0 0-.25.104L3.699 23.163a.345.345 0 0 0-.104.249c0 .067.018.164.104.25l6.009 6.008a.344.344 0 0 0 .249.103.344.344 0 0 0 .249-.103L29.67 10.204a.347.347 0 0 0 .103-.249.346.346 0 0 0-.103-.249l-6.009-6.008a.346.346 0 0 0-.249-.104z" fill="#231F20"/>
</svg>
