<svg width="33" height="42" viewBox="0 0 33 42" fill="none" xmlns="http://www.w3.org/2000/svg">
    <path d="M21.034 31.75h6.825v-9.557L16.408 10.749 5.625 21.524l-3.203-3.267L13.169 7.51 8.893 3.234 12.127 0l4.276 4.276.004-.004.004.004L20.687 0l3.235 3.234-4.276 4.277 12.787 12.787v16.026h-11.4V31.75z" fill="#231F20"/>
    <path d="M18.693 36.227l-4.345-3.711 7.895-7.706-4.085-1.163-1.477-4.1-7.473 8.105-3.944-4.134.448 5.697L0 29.08l4.345 3.711-4.134 3.944 5.697-.448L5.774 42l3.71-4.345 3.945 4.134-.448-5.696 5.712.133zM8.66 34.449a1.922 1.922 0 1 1 1.373-3.59 1.922 1.922 0 0 1-1.373 3.59z" fill="#231F20"/>
</svg>
