<svg width="32" height="49" viewBox="0 0 32 49" fill="none" xmlns="http://www.w3.org/2000/svg">
    <path d="M12.495 41.662L8.317 45.84l3.16 3.16 4.178-4.178.004.003.004-.004L19.842 49l3.16-3.16-4.178-4.179 12.494-12.494V0H0v29.167l12.495 12.495zM4.47 4.47h22.38v22.845l-7.005 7.004-.003-.003-4.182 4.181-4.183-4.181-.004.004-7.003-7.005V4.47z" fill="#231F20"/>
    <path d="M20.818 17.79c1.212 1.015 1.819 2.373 1.819 4.076 0 1.1-.276 2.102-.826 3.005-.55.902-1.389 1.624-2.515 2.166-1.126.542-2.514.812-4.165.812-1.273 0-2.524-.167-3.753-.502-1.23-.336-2.274-.813-3.134-1.432l1.65-3.198a7.89 7.89 0 0 0 2.374 1.199 9.074 9.074 0 0 0 2.76.425c1.048 0 1.873-.206 2.475-.619.602-.413.903-.989.903-1.728 0-.773-.314-1.358-.941-1.754-.629-.395-1.716-.593-3.263-.593H9.585l.929-10.162h11.013v3.353h-7.53l-.284 3.43h1.47c2.544 0 4.423.508 5.635 1.523z" fill="#231F20"/>
</svg>
