<svg width="39" height="44" viewBox="0 0 39 44" fill="none" xmlns="http://www.w3.org/2000/svg">
    <g clip-path="url(#a)" fill="#231F20">
        <path d="M31.27 15.889V0H7.01L0 10.675V44h31.27v-8.645h-4.074v4.57H4.075V12.834h7.255l.007-8.759h15.859V15.89h4.075z"/>
        <path d="M18.983 30.409a5.51 5.51 0 0 1-2.212-2.061c-.535-.883-.801-1.885-.801-3.005 0-1.122.266-2.123.8-3.006a5.51 5.51 0 0 1 2.213-2.061c.942-.491 1.999-.737 3.173-.737 1.078 0 2.04.19 2.887.57.846.381 1.544.931 2.094 1.65l-2.363 2.109c-.688-.866-1.497-1.3-2.428-1.3-.782 0-1.411.251-1.887.752-.476.503-.714 1.177-.714 2.023 0 .845.238 1.52.714 2.021.476.502 1.104.753 1.887.753.93 0 1.74-.433 2.428-1.3l2.363 2.11a5.352 5.352 0 0 1-2.094 1.647c-.846.382-1.809.572-2.887.572-1.174.001-2.231-.245-3.172-.737zM39 19.792v11.101H35.32v-8.199h-3.379v8.2h-3.68V19.792H39z"/>
    </g>
    <defs>
        <clipPath id="a">
            <path fill="#fff" d="M0 0h39v44H0z"/>
        </clipPath>
    </defs>
</svg>
