<svg xmlns="http://www.w3.org/2000/svg"><symbol id="arrow-down-icon" viewBox="0 0 61 61">
    <path d="M0 0v61h61V0H0zm57 57H4V4h24.5v34.51L16.826 26.835l-2.828 2.828L30.5 46.166l16.503-16.502-2.828-2.828L32.5 38.51V4H57v53z"/>
</symbol><symbol id="arrow-left" viewBox="0 0 33.496 61.334">
    <path d="M30.668 61.334L0 30.667 30.668 0l2.828 2.828-27.84 27.839 27.84 27.839z"/>
</symbol><symbol id="arrow-right" viewBox="0 0 33.496 61.334">
    <path d="M2.828 61.334l30.668-30.667L2.828 0 0 2.828l27.84 27.839L0 58.506z"/>
</symbol><symbol id="arrow-up" viewBox="0 0 33.508 19.582">
    <path d="M30.68 19.582L16.754 5.657 2.828 19.582 0 16.754 16.754 0l16.754 16.754z"/>
</symbol><symbol id="arrow-upright-icon" viewBox="0 0 27.329 27.329">
    <path d="M3.136 0v5h15.658L0 23.794l3.535 3.535L22.329 8.535v15.658h5V0z"/>
</symbol><symbol id="banknotes" viewBox="0 0 158.986 93.691">
    <path d="M0 27.691v66h131.295v-66H0zm122.295 15.694a12.123 12.123 0 0 1-6.694-6.694h6.694v6.694zm-11.951 41.306H20.951A17.11 17.11 0 0 0 9 72.74V48.643a17.109 17.109 0 0 0 11.951-11.951h89.393a17.107 17.107 0 0 0 11.951 11.951V72.74a17.109 17.109 0 0 0-11.951 11.951zm-94.65-48A12.126 12.126 0 0 1 9 43.385v-6.694h6.694zM9 77.998a12.124 12.124 0 0 1 6.694 6.693H9v-6.693zm106.601 6.693a12.12 12.12 0 0 1 6.694-6.693v6.693h-6.694z"/>
    <path d="M65.647 81.567c-11.511 0-20.876-9.364-20.876-20.876s9.365-20.876 20.876-20.876 20.876 9.364 20.876 20.876-9.365 20.876-20.876 20.876zm0-37.752c-9.306 0-16.876 7.57-16.876 16.876s7.57 16.876 16.876 16.876 16.876-7.57 16.876-16.876-7.57-16.876-16.876-16.876z"/>
    <path d="M65.647 74.987c-7.883 0-14.296-6.413-14.296-14.296s6.413-14.296 14.296-14.296 14.296 6.413 14.296 14.296-6.413 14.296-14.296 14.296zm0-26.591c-6.78 0-12.296 5.517-12.296 12.296s5.516 12.296 12.296 12.296 12.296-5.517 12.296-12.296-5.516-12.296-12.296-12.296z"/>
    <path d="M67.032 54.877l1.829-1.828-1.383-1.384-1.829 1.829-.001-.002-.001.002-1.829-1.829-1.383 1.384 1.829 1.828-5.468 5.468v6.853H72.5v-6.853l-5.468-5.468zm3.512 10.365H60.75v-4.087l3.065-3.065.001.002 1.83-1.83 1.83 1.83.001-.002 3.065 3.065v4.087z"/>
    <g>
        <g>
            <path d="M91.447 27.691h3.782l-.506-.506 1.829-1.828-1.384-1.383-1.828 1.828-.002-.002-.001.002-1.829-1.828-1.383 1.383 1.828 1.828z"/>
            <path d="M27.691 0v27.691h9v-6.74A17.112 17.112 0 0 0 48.643 9h89.393a17.107 17.107 0 0 0 11.951 11.951v24.098A17.107 17.107 0 0 0 138.036 57h-6.74v9h27.691V0H27.691zm9 15.694V9h6.694a12.126 12.126 0 0 1-6.694 6.694zM149.986 57h-6.694a12.12 12.12 0 0 1 6.694-6.693V57zm0-41.306A12.123 12.123 0 0 1 143.292 9h6.694v6.694z"/>
            <path d="M77.331 27.691c2.232-6.71 8.558-11.567 16.007-11.567 7.45 0 13.776 4.857 16.008 11.567h4.158c-2.357-8.944-10.491-15.567-20.166-15.567-9.674 0-17.808 6.624-20.166 15.567h4.159z"/>
            <path d="M82.265 27.691c1.986-4.126 6.196-6.987 11.073-6.987s9.088 2.861 11.074 6.987h2.189c-2.113-5.26-7.257-8.987-13.264-8.987-6.006 0-11.148 3.728-13.262 8.987h2.19z"/>
        </g>
    </g>
</symbol><symbol id="check_icon" viewBox="0 0 43.828 30.576">
    <path d="M16.081 30.576L0 14.495l2.828-2.828 13.253 13.252L41 0l2.828 2.828z"/>
</symbol><symbol id="clock_coin" viewBox="0 0 145.604 66.386">
    <g>
        <path d="M33.193 0C14.89 0 0 14.89 0 33.193s14.89 33.193 33.193 33.193 33.193-14.891 33.193-33.193S51.496 0 33.193 0zm0 61.386C17.647 61.386 5 48.739 5 33.193 5 17.647 17.647 5 33.193 5s28.193 12.647 28.193 28.193c0 15.546-12.648 28.193-28.193 28.193zM112.411 0C94.108 0 79.219 14.89 79.219 33.193s14.89 33.193 33.192 33.193 33.192-14.891 33.192-33.193S130.714 0 112.411 0zm0 61.386c-15.545 0-28.192-12.647-28.192-28.193C84.219 17.647 96.866 5 112.411 5s28.192 12.647 28.192 28.193c.001 15.546-12.647 28.193-28.192 28.193z"/>
        <path d="M112.411 7.667c-14.075 0-25.526 11.451-25.526 25.526s11.451 25.526 25.526 25.526 25.526-11.451 25.526-25.526-11.451-25.526-25.526-25.526zm0 48.052c-12.421 0-22.526-10.105-22.526-22.526s10.105-22.526 22.526-22.526 22.526 10.105 22.526 22.526-10.105 22.526-22.526 22.526z"/>
        <path d="M118.218 19.381l-2.499-2.5-3.305 3.304-.003-.003-.003.003-3.305-3.305-2.499 2.5 3.304 3.304-9.881 9.881V44.95h24.768V32.566l-9.881-9.881 3.304-3.304zm-2.5 9.114l.003-.003 5.539 5.54v7.385h-17.697v-7.385l5.539-5.539.002.003 3.308-3.307 3.306 3.306zM49.208 13.643L36.256 26.595a7.232 7.232 0 0 0-3.063-.683c-1.095 0-2.13.249-3.063.683l-7.543-7.543-3.535 3.535 7.543 7.543a7.232 7.232 0 0 0-.683 3.063 7.28 7.28 0 0 0 14.56 0 7.246 7.246 0 0 0-.682-3.063l12.952-12.952-3.534-3.535z"/>
    </g>
</symbol><symbol id="confid_homes" viewBox="0 0 60.337 86.416">
    <g>
        <path d="M35.177 14.778l8.414-8.414L37.227 0l-8.414 8.414-.009-.008-.007.007L20.384 0 14.02 6.364l8.413 8.413L1.288 35.922 7.59 42.35l21.216-21.201 22.531 22.517V62.47h-13.43v9h22.43V39.938z"/>
        <path d="M23.893 57.266c0-4.872-3.963-8.835-8.835-8.835s-8.835 3.963-8.835 8.835v4.548H0v24.603h30.115V61.813h-6.222v-4.547zm-11.671 0c0-1.563 1.272-2.835 2.835-2.835s2.835 1.271 2.835 2.835v4.548h-5.671v-4.548zm8.893 20.15H9v-6.603h12.115v6.603z"/>
    </g>
</symbol><symbol id="cookies_home" viewBox="0 0 73.707 84.632">
    <path d="M51.277 62.47h13.43V43.666L42.175 21.149 20.959 42.35l-6.301-6.428 21.144-21.145-8.413-8.413L33.753 0l8.414 8.413.006-.007.009.008L50.596 0l6.364 6.364-8.414 8.414 25.161 25.16V71.47h-22.43z"/>
    <path d="M17.849 84.632L0 66.784l6.364-6.365 11.485 11.485L41 48.753l6.365 6.363z"/>
</symbol><symbol id="copyright_home" viewBox="0 0 65.986 86.723">
    <path d="M43.557 62.47h13.429V43.666L34.455 21.149 13.239 42.35l-6.301-6.428 21.144-21.145-8.413-8.413L26.033 0l8.413 8.413.007-.007.009.008L42.876 0l6.364 6.364-8.414 8.414 25.16 25.16V71.47H43.557z"/>
    <path d="M8.838 84.304c-2.734-1.611-4.89-3.807-6.47-6.586C.79 74.94 0 71.888 0 68.56c0-3.326.79-6.381 2.369-9.158a17.561 17.561 0 0 1 6.495-6.586c2.75-1.612 5.807-2.419 9.169-2.419s6.41.79 9.144 2.366c2.733 1.579 4.881 3.748 6.444 6.51 1.562 2.762 2.343 5.822 2.343 9.184 0 3.363-.798 6.441-2.394 9.236-1.597 2.797-3.77 5-6.521 6.611-2.75 1.613-5.79 2.419-9.118 2.419s-6.36-.806-9.093-2.419zm15.893-3.91c2.02-1.199 3.599-2.847 4.737-4.939 1.137-2.092 1.707-4.425 1.707-6.998 0-2.572-.561-4.887-1.681-6.945s-2.674-3.67-4.661-4.837c-1.986-1.165-4.253-1.749-6.8-1.749s-4.822.6-6.826 1.801c-2.004 1.201-3.575 2.838-4.712 4.914-1.138 2.075-1.707 4.382-1.707 6.92 0 2.539.568 4.846 1.707 6.92 1.137 2.076 2.7 3.715 4.687 4.914 1.986 1.201 4.236 1.801 6.749 1.801s4.779-.601 6.8-1.802zm-11.665-2.958c-1.681-.875-2.989-2.084-3.922-3.628-.935-1.543-1.401-3.293-1.401-5.248s.466-3.705 1.401-5.248c.934-1.544 2.241-2.753 3.922-3.627 1.681-.875 3.574-1.313 5.68-1.313 2.241 0 4.177.514 5.807 1.543 1.63 1.029 2.75 2.453 3.362 4.271l-6.52 3.344c-.611-1.371-1.512-2.058-2.7-2.058-.713 0-1.324.274-1.833.823-.51.549-.764 1.304-.764 2.264 0 .961.254 1.716.764 2.264.509.549 1.121.824 1.833.824 1.188 0 2.089-.687 2.7-2.059l6.52 3.344c-.611 1.819-1.732 3.242-3.362 4.271-1.63 1.029-3.566 1.543-5.807 1.543-2.106.001-3.999-.436-5.68-1.31z"/>
</symbol><symbol id="cross_icon_black" viewBox="0 0 30.463 30.461">
    <path d="M30.463 27.633L18.06 15.23 30.462 2.828 27.634 0 15.231 12.402 2.829 0 .001 2.828 12.403 15.23 0 27.633l2.828 2.828 12.403-12.402 12.404 12.402z"/>
</symbol><symbol id="eco_homes" viewBox="0 0 70.463 100.312">
    <path d="M48.034 62.469h13.429V43.666L38.932 21.149 17.716 42.35l-6.301-6.428 21.144-21.145-8.413-8.413L30.51 0l8.413 8.413.007-.007.009.008L47.353 0l6.364 6.364-8.414 8.414 25.16 25.16v31.531H48.034z"/>
    <path d="M0 55.095s4.621-4.072 14.252-5.008c9.629-.936 17.432 3.609 21.129 6.768 2.643 2.256 5.447 6.658 5.889 12.162.439 5.502-1.375 10.398-1.98 11.995-.605 1.596-1.596 3.136-1.596 3.136S27.348 67.366 20.305 64.119c0 0 2.502 2.295 9.299 12.161 1.706 2.476 5.063 7.374 7.374 11.886 2.313 4.512 3.521 7.814 3.137 9.74s-1.98 2.586-3.025 2.365c-1.047-.22-1.596-.824-.99-2.035.604-1.211 2.311-3.467-.221-7.374-2.532-3.907-3.302-2.642-8.695-2.696s-12.656-.99-17.773-9.08c-5.12-8.088-2.313-16.288-6.935-21.626C.888 55.654 0 55.095 0 55.095z"/>
</symbol><symbol id="home_1_icon" viewBox="0 0 63.064 71.469">
    <path d="M63.064 39.938l-25.16-25.161 8.413-8.413L39.953 0 31.54 8.413l-.007-.007-.009.008L23.11 0l-6.364 6.364 8.414 8.414L0 39.938v31.531h63.064V39.938zm-9 22.531H9V43.667L31.531 21.15l22.533 22.517v18.802z"/>
</symbol><symbol id="home_2_icon" viewBox="0 0 63.064 105.469">
    <path d="M37.904 14.777l8.413-8.413L39.953 0 31.54 8.413l-.007-.007-.009.008L23.11 0l-6.364 6.364 8.414 8.414L0 39.938v65.531h63.064V39.938l-25.16-25.161zm16.16 81.692H9V70.235h45.064v26.234zM9 61.235V43.666l22.531-22.517 22.533 22.517v17.569H9z"/>
</symbol><symbol id="icon-close" viewBox="0 0 19 19">
    <path d="M18.58.435a1.436 1.436 0 0 0-2.033 0L9.5 7.468 2.453.421A1.437 1.437 0 1 0 .42 2.453L7.468 9.5.421 16.547a1.437 1.437 0 1 0 2.032 2.032L9.5 11.532l7.047 7.047a1.437 1.437 0 0 0 2.032-2.032L11.532 9.5l7.047-7.047a1.444 1.444 0 0 0 0-2.018z"/>
</symbol><symbol id="left-arrow" viewBox="0 0 512.00024 341.33325">
    <path d="M501.332 160H36.416L178.208 18.208c4.167-4.167 4.167-10.917 0-15.083-4.167-4.167-10.917-4.167-15.083 0l-160 160c-4.167 4.167-4.167 10.917 0 15.083l160 160a10.634 10.634 0 0 0 7.542 3.125c2.73 0 5.458-1.042 7.542-3.125 4.167-4.167 4.167-10.917 0-15.083L36.416 181.335h464.917A10.66 10.66 0 0 0 512 170.666 10.662 10.662 0 0 0 501.332 160z"/>
</symbol><symbol id="letter_icon" viewBox="0 0 53.001 37.37">
    <path d="M0 0v37.37h53V0H0zm26.493 19.873L7.321 4H45.5L26.493 19.873zM4 33.37V7.525l20.958 17.353c.015.013.032.021.047.032.043.034.089.062.134.093a2.422 2.422 0 0 0 .435.238c.105.044.213.079.322.107.045.012.088.025.133.034.155.031.312.051.469.051h.002c.158 0 .315-.021.471-.051.045-.009.089-.023.133-.035a2.393 2.393 0 0 0 .474-.176c.101-.051.197-.11.292-.176.043-.029.086-.056.127-.088.016-.014.034-.021.051-.035L49.001 7.375V33.37H4z"/>
</symbol><symbol id="logo" viewBox="0 0 260.119 107.469">
    <path d="M0 80.369h63.063v9H0zM63.063 39.938l-25.16-25.161 8.414-8.413L39.952 0 31.54 8.413l-.008-.007-.008.008L23.11 0l-6.365 6.364 8.414 8.414L0 39.938v31.531h63.063V39.938zm-9 22.531H9V43.666l22.531-22.517 22.532 22.517v18.803zM81.37 41.998h20.526v6.46h8.293V34.804h-4.353V9.924H79.995l-.366 9.897c-.184 4.826-.664 8.521-1.443 11.088-.779 2.565-2.115 3.864-4.009 3.895h-1.146v13.653h8.339v-6.459zm5.36-12.692c.428-2.383.702-5.284.825-8.706l.138-3.482h9.209v17.687H84.761c.885-1.284 1.542-3.117 1.969-5.499zM130.373 40.486c2.703 1.436 5.75 2.153 9.141 2.153s6.438-.718 9.141-2.153 4.826-3.421 6.369-5.957c1.542-2.535 2.313-5.391 2.313-8.567s-.771-6.032-2.313-8.568c-1.543-2.535-3.666-4.521-6.369-5.956s-5.75-2.154-9.141-2.154-6.438.719-9.141 2.154c-2.704 1.436-4.827 3.421-6.369 5.956-1.543 2.536-2.313 5.392-2.313 8.568s.771 6.032 2.313 8.567c1.542 2.536 3.665 4.521 6.369 5.957zm1.626-19.313c.764-1.39 1.802-2.467 3.116-3.23 1.313-.764 2.778-1.146 4.398-1.146 1.618 0 3.085.382 4.398 1.146 1.313.764 2.352 1.841 3.115 3.23s1.146 2.985 1.146 4.788-.382 3.398-1.146 4.788-1.803 2.467-3.115 3.229c-1.313.765-2.78 1.146-4.398 1.146-1.62 0-3.086-.381-4.398-1.146-1.314-.763-2.353-1.84-3.116-3.229s-1.146-2.985-1.146-4.788.382-3.398 1.146-4.788zM179.741 25.366l8.247 13.47h4.033l8.247-13.837.045 16.999h8.385l-.092-32.074h-7.467l-10.997 18.511-11.271-18.511h-7.469v32.074h8.339zM233.304 35.766h13.562l2.521 6.231h9.438L244.62 9.924h-8.935l-14.157 32.073h9.255l2.521-6.231zm6.78-16.953l4.124 10.264h-8.247l4.123-10.264zM80.396 72.109l8.247 13.471h4.032l8.247-13.838.046 16.999h8.385l-.092-32.074h-7.468L90.796 75.178 79.525 56.667h-7.468v32.074h8.339zM141.38 81.731h-16.77v-5.865h14.249v-6.782H124.61v-5.406h16.174v-7.011H115.63v32.074h25.75zM155.995 56.667h-8.935v9.852c0 4.063 1.184 7.17 3.551 9.324 2.367 2.153 5.796 3.229 10.286 3.229 2.077 0 4.354-.412 6.827-1.237V88.74h8.935V56.667h-8.935v13.929c-1.589.733-3.482 1.1-5.682 1.1-4.032 0-6.048-2.062-6.048-6.186v-8.843zM201.859 88.741v-24.88h9.806v-7.194h-28.591v7.194h9.851v24.88zM250.335 56.667h8.935V88.74h-8.935zM243.233 85.808c2.383-1.954 3.574-4.78 3.574-8.477 0-3.451-1.07-6.055-3.208-7.812-2.138-1.756-5.177-2.635-9.117-2.635h-7.423V56.667h-8.935V88.74h15.166c4.246.001 7.561-.977 9.943-2.932zm-16.173-3.573v-8.89h5.636c3.329 0 4.994 1.391 4.994 4.17 0 1.497-.451 2.657-1.352 3.482-.901.824-2.115 1.237-3.643 1.237h-5.635zM0 98.469h260.119v9H0z"/>
</symbol><symbol id="longarrow_right_1_icon_white" viewBox="0 0 149.417 43.84">
    <path d="M127.497 0l-1.414 1.414 19.506 19.506H0v2h145.589l-19.506 19.506 1.414 1.414 21.92-21.92z"/>
</symbol><symbol id="mappoint" viewBox="0 0 36.672 47.381">
    <path d="M18.336 0C8.209 0 0 8.209 0 18.336c0 12.17 14.248 29.045 18.336 29.045s18.336-16.25 18.336-29.045C36.672 8.209 28.463 0 18.336 0zm0 31.933c-7.691 0-13.926-6.236-13.926-13.927S10.645 4.079 18.336 4.079s13.927 6.235 13.927 13.927c0 7.69-6.236 13.927-13.927 13.927z"/>
</symbol><symbol id="moms_capital" viewBox="0 0 73.466 89.125">
    <path d="M51.036 62.47h13.43V43.666L41.935 21.149 20.719 42.35l-6.302-6.428 21.145-21.145-8.414-8.413L33.513 0l8.413 8.413.007-.007.008.008L50.355 0l6.365 6.364-8.414 8.414 25.16 25.16V71.47h-22.43z"/>
    <path fill-rule="evenodd" clip-rule="evenodd" d="M21.943 53.604C17.781 43.263 0 48.285 0 62.245c-.002 9.215 7.692 12.657 12.853 16.34 5.002 3.572 8.564 8.459 9.123 10.54.478-2.04 4.445-7.063 9.077-10.638 5.064-3.91 12.854-7.129 12.853-16.341 0-14.003-17.799-18.688-21.963-8.542z"/>
</symbol><symbol id="right-arrow" viewBox="0 0 512.00037 341.33325">
    <path d="M508.875 163.125l-160-160c-4.167-4.167-10.917-4.167-15.083 0-4.167 4.167-4.167 10.917 0 15.083L475.584 160H10.667A10.66 10.66 0 0 0 0 170.667a10.66 10.66 0 0 0 10.667 10.667h464.917L333.792 323.125c-4.167 4.167-4.167 10.917 0 15.083a10.634 10.634 0 0 0 7.542 3.125c2.729 0 5.458-1.042 7.542-3.125l160-160c4.166-4.166 4.166-10.916-.001-15.083z"/>
</symbol><symbol id="sales" viewBox="0 0 71.963 89.182">
    <path d="M49.534 62.469h13.429V43.666L40.432 21.149 19.216 42.35l-6.301-6.428 21.144-21.145-8.413-8.413L32.01 0l8.413 8.413.007-.007.009.008L48.853 0l6.364 6.364-8.414 8.414 25.16 25.16v31.531H49.534z"/>
    <path d="M36.28 48.004l4.95 4.95L8.917 85.274l-4.95-4.949zM10.271 64.983C4.607 64.983 0 60.376 0 54.713c0-5.664 4.607-10.271 10.271-10.271s10.271 4.607 10.271 10.271c0 5.663-4.607 10.27-10.271 10.27zm0-13.542A3.274 3.274 0 0 0 7 54.713c0 1.803 1.467 3.271 3.271 3.271s3.271-1.468 3.271-3.271a3.274 3.274 0 0 0-3.271-3.272zM34.47 89.182c-5.664 0-10.271-4.607-10.271-10.271S28.806 68.64 34.47 68.64c5.663 0 10.271 4.607 10.271 10.271S40.133 89.182 34.47 89.182zm0-13.541c-1.804 0-3.271 1.467-3.271 3.271s1.467 3.271 3.271 3.271 3.271-1.467 3.271-3.271-1.467-3.271-3.271-3.271z"/>
</symbol><symbol id="smartphone_2" viewBox="0 0 26.624 50.872">
    <circle cx="7.09" cy="6.929" r="1.049"/>
    <g>
        <circle cx="13.312" cy="42.168" r="1.782"/>
        <path d="M20.954 0H5.669A5.669 5.669 0 0 0 0 5.669v39.534a5.669 5.669 0 0 0 5.669 5.669h15.284a5.67 5.67 0 0 0 5.67-5.669V5.669A5.668 5.668 0 0 0 20.954 0zM4.469 6.929c0-1.445 1.176-2.621 2.621-2.621s2.622 1.176 2.622 2.621S8.536 9.55 7.09 9.55 4.469 8.374 4.469 6.929zm8.843 39.693c-2.456 0-4.454-1.998-4.454-4.454s1.998-4.454 4.454-4.454c2.457 0 4.455 1.998 4.455 4.454s-1.999 4.454-4.455 4.454z"/>
    </g>
</symbol><symbol id="smartphone_black" viewBox="0 0 29.004 54.902">
    <path d="M26.124 0H2.88A2.88 2.88 0 0 0 0 2.88v49.143a2.88 2.88 0 0 0 2.88 2.88h23.244a2.88 2.88 0 0 0 2.88-2.88V2.88A2.88 2.88 0 0 0 26.124 0zm-.374 3.254v1.531a2.637 2.637 0 0 0-.715-.109H3.969c-.25 0-.486.045-.715.109V3.254H25.75zM14.502 51.529c-.983 0-1.782-.8-1.782-1.782s.799-1.782 1.782-1.782 1.783.8 1.783 1.782-.8 1.782-1.783 1.782zm-9.936-7.096V7.93h19.873v36.503H4.566zm-1.313 3.144c.229.063.466.109.715.109h6.608a4.403 4.403 0 0 0-.529 2.061c0 .683.167 1.322.442 1.901H3.253v-4.071zm15.261 4.071a4.414 4.414 0 0 0 .442-1.901 4.41 4.41 0 0 0-.529-2.061h6.608c.25 0 .486-.046.715-.109v4.071h-7.236z"/>
</symbol><symbol id="social_facebook" viewBox="0 0 33.824 72.864">
    <path d="M33.824 23.594h-11.52v-7.561c0-2.839 1.881-3.502 3.204-3.502h8.129V.043L22.445 0C10.017 0 7.188 9.313 7.188 15.271v8.322H0v12.864h7.188v36.406h15.116V36.457h10.198l1.322-12.863z"/>
</symbol><symbol id="social_instagram" viewBox="0 0 73.507 73.588">
    <path d="M59.3 0H14.209C6.374 0 0 6.375 0 14.217V59.365c0 7.844 6.374 14.223 14.209 14.223H59.3c7.834 0 14.207-6.379 14.207-14.223V14.217C73.507 6.375 67.134 0 59.3 0zm4.076 8.482l1.626-.007V20.95l-12.421.041-.043-12.476 10.838-.033zM26.265 29.241c2.353-3.261 6.172-5.399 10.487-5.399 4.318 0 8.141 2.138 10.494 5.399a12.89 12.89 0 0 1 2.45 7.554c0 7.14-5.809 12.946-12.944 12.946-7.13 0-12.935-5.806-12.935-12.946a12.902 12.902 0 0 1 2.448-7.554zm40.081 30.124c0 3.891-3.157 7.053-7.046 7.053H14.209c-3.89 0-7.045-3.162-7.045-7.053V29.241h10.972a20.042 20.042 0 0 0-1.48 7.554c0 11.09 9.015 20.12 20.096 20.12 11.085 0 20.099-9.029 20.099-20.12 0-2.67-.534-5.222-1.48-7.554h10.976v30.124z"/>
</symbol><symbol id="social_vk" viewBox="0 0 81.007 46.221">
    <path d="M80.58 41.742a5.64 5.64 0 0 0-.275-.528c-1.405-2.529-4.093-5.637-8.056-9.319l-.084-.086-.043-.041-.043-.042h-.04c-1.8-1.717-2.94-2.87-3.417-3.459-.873-1.124-1.07-2.265-.592-3.417.338-.872 1.602-2.712 3.797-5.526a300.777 300.777 0 0 0 2.74-3.584c4.865-6.469 6.974-10.602 6.326-12.401l-.25-.42c-.17-.252-.604-.485-1.307-.695-.703-.212-1.604-.248-2.7-.106L64.489 2.2c-.195-.068-.479-.063-.842.023l-.552.126-.21.106-.166.126c-.143.083-.297.23-.466.442-.167.21-.308.458-.419.738-1.325 3.403-2.826 6.565-4.516 9.489a90.087 90.087 0 0 1-2.869 4.535c-.871 1.278-1.602 2.222-2.191 2.826-.591.604-1.125 1.09-1.602 1.454-.48.367-.845.521-1.098.465a55.49 55.49 0 0 1-.718-.169 2.777 2.777 0 0 1-.948-1.034c-.24-.435-.401-.984-.484-1.646a18.422 18.422 0 0 1-.15-1.707 38.744 38.744 0 0 1 .023-2.025c.027-.872.043-1.463.043-1.771 0-1.07.02-2.23.061-3.481.043-1.251.078-2.242.106-2.973.027-.73.043-1.504.043-2.321 0-.814-.051-1.453-.149-1.918a6.482 6.482 0 0 0-.442-1.35 2.255 2.255 0 0 0-.864-1.01c-.379-.24-.85-.43-1.41-.572-1.492-.336-3.391-.518-5.695-.549-5.23-.056-8.59.283-10.082 1.014a5.684 5.684 0 0 0-1.602 1.266c-.505.619-.577.958-.211 1.014 1.688.253 2.881.857 3.587 1.813l.251.508c.198.364.396 1.012.59 1.939.196.928.324 1.954.378 3.079.143 2.053.143 3.81 0 5.273-.138 1.46-.271 2.601-.399 3.415-.125.817-.315 1.476-.568 1.984-.251.506-.422.814-.508.928-.084.111-.154.182-.209.209a3.121 3.121 0 0 1-1.141.212c-.391 0-.87-.197-1.434-.591-.561-.394-1.144-.936-1.749-1.626-.603-.687-1.286-1.65-2.047-2.888-.758-1.237-1.543-2.697-2.36-4.386l-.675-1.223a97.086 97.086 0 0 1-1.729-3.438 65.867 65.867 0 0 1-1.941-4.367c-.226-.589-.563-1.039-1.014-1.35l-.21-.126c-.142-.111-.366-.23-.675-.359a4.505 4.505 0 0 0-.971-.273L2.7 2.114c-1.18 0-1.982.268-2.404.801l-.17.253C.042 3.31 0 3.535 0 3.843c0 .311.083.69.253 1.14a139.305 139.305 0 0 0 5.504 11.471c1.982 3.686 3.704 6.651 5.165 8.9a104.609 104.609 0 0 0 4.472 6.368c1.52 1.997 2.524 3.276 3.015 3.84.493.563.881.982 1.16 1.264l1.055 1.013c.675.676 1.665 1.484 2.976 2.424a50.694 50.694 0 0 0 4.343 2.787c1.59.912 3.437 1.657 5.548 2.234 2.109.576 4.161.809 6.158.694h4.85c.983-.083 1.729-.394 2.234-.927l.167-.21c.114-.169.22-.431.315-.782.1-.35.15-.737.15-1.159-.028-1.209.063-2.298.272-3.269.21-.968.45-1.698.718-2.191.268-.494.568-.907.907-1.244.337-.338.577-.541.718-.611.139-.071.25-.119.336-.149.676-.225 1.469-.005 2.385.655a14.09 14.09 0 0 1 2.572 2.446 76.7 76.7 0 0 0 2.887 3.269c1.128 1.208 2.111 2.108 2.953 2.699l.844.506c.564.339 1.295.646 2.194.928.899.283 1.687.354 2.36.213l10.799-.17c1.066 0 1.898-.177 2.488-.527.591-.352.939-.739 1.053-1.158.114-.423.119-.9.023-1.436-.1-.534-.198-.909-.294-1.119zm0 0"/>
</symbol><symbol id="tech_home" viewBox="0 0 83.342 97.212">
    <path d="M58.182 14.778l8.414-8.414L60.232 0l-8.414 8.414-.009-.008-.007.007L43.389 0l-6.364 6.364 8.413 8.413-21.145 21.145 6.302 6.428 21.216-21.201 22.531 22.517V62.47H60.913v9h22.429V39.938zM51.748 86.604L8.881 43.737l7.292-7.292-3.455-3.454L0 45.709l3.455 3.455v10.362l4.71-4.711v9.422l4.711-4.711v9.422l4.71-4.711v9.422l4.711-4.711v9.421l4.71-4.71v9.421l4.711-4.71v9.42l4.711-4.711v9.422l4.71-4.711v9.422l5.182-5.182 3.455 3.455 12.718-12.718-3.454-3.455z"/>
</symbol><symbol id="telegram" viewBox="0 0 23.999312 21.002862">
    <path d="M.414 10.199l5.87 2.925a.752.752 0 0 0 .711-.023l5.224-3.037-3.162 2.802a.751.751 0 0 0-.253.562v6.825c0 .72.92 1.023 1.35.45l2.537-3.372 6.274 3.573a.75.75 0 0 0 1.106-.504L23.984.9a.75.75 0 0 0-1.008-.846L.476 8.829a.75.75 0 0 0-.062 1.37zm21.83-8.25l-3.439 17.138L12.86 15.7a.752.752 0 0 0-.97.2l-1.586 2.108v-4.244l8.551-7.576c.677-.6-.1-1.664-.874-1.21L6.591 11.6 2.6 9.61z"/>
</symbol><symbol id="three_coin" viewBox="0 0 154.385 66.386">
    <path d="M121.193 66.386C102.89 66.386 88 51.496 88 33.193S102.89 0 121.193 0s33.192 14.89 33.192 33.193-14.889 33.193-33.192 33.193zm0-61.386C105.648 5 93 17.647 93 33.193c0 15.546 12.647 28.193 28.192 28.193s28.192-12.647 28.192-28.193C149.385 17.647 136.738 5 121.193 5z"/>
    <path d="M121.193 58.719c-14.075 0-25.526-11.451-25.526-25.526s11.451-25.526 25.526-25.526 25.526 11.451 25.526 25.526-11.451 25.526-25.526 25.526zm0-48.052c-12.421 0-22.526 10.105-22.526 22.526s10.105 22.526 22.526 22.526 22.526-10.105 22.526-22.526-10.105-22.526-22.526-22.526z"/>
    <path d="M123.696 22.686L127 19.381l-2.499-2.5-3.305 3.304-.003-.003-.003.003-3.305-3.305-2.499 2.5 3.304 3.304-9.881 9.88V44.95h24.768V32.566l-9.881-9.88zm6.346 18.73h-17.697v-7.385l5.539-5.539.002.003 3.308-3.307 3.307 3.307.003-.003 5.539 5.54v7.384z"/>
    <g>
        <path d="M7.667 33.193c0 14.075 11.451 25.526 25.526 25.526a25.36 25.36 0 0 0 13.33-3.768 33.875 33.875 0 0 1-1.827-2.401 22.383 22.383 0 0 1-11.503 3.169c-12.421 0-22.526-10.105-22.526-22.526s10.105-22.526 22.526-22.526c4.2 0 8.134 1.159 11.503 3.169a34.178 34.178 0 0 1 1.827-2.401 25.36 25.36 0 0 0-13.33-3.768c-14.075 0-25.526 11.451-25.526 25.526z"/>
        <path d="M0 33.193c0 18.303 14.89 33.193 33.193 33.193a32.99 32.99 0 0 0 19.022-6.016 34.164 34.164 0 0 1-3.887-3.41 28.012 28.012 0 0 1-15.135 4.426C17.647 61.386 5 48.739 5 33.193 5 17.647 17.647 5 33.193 5a28.025 28.025 0 0 1 15.135 4.425 34.164 34.164 0 0 1 3.887-3.41A33.003 33.003 0 0 0 33.193 0C14.89 0 0 14.89 0 33.193z"/>
        <path d="M20.81 44.95h19.925a33.628 33.628 0 0 1-1.089-3.534H24.344v-7.385l5.539-5.539.002.003 3.307-3.307 3.307 3.307.003-.003 2.237 2.238c.107-1.495.304-2.966.598-4.401l-3.642-3.642L39 19.381l-2.5-2.5-3.304 3.304-.003-.003-.003.003-3.305-3.305-2.499 2.5 3.304 3.304-9.881 9.88V44.95z"/>
    </g>
    <g>
        <path d="M51.667 33.193c0 14.075 11.451 25.526 25.526 25.526a25.36 25.36 0 0 0 13.33-3.768 33.875 33.875 0 0 1-1.827-2.401 22.383 22.383 0 0 1-11.503 3.169c-12.421 0-22.526-10.105-22.526-22.526s10.105-22.526 22.526-22.526c4.2 0 8.134 1.159 11.503 3.169a34.178 34.178 0 0 1 1.827-2.401 25.36 25.36 0 0 0-13.33-3.768c-14.075 0-25.526 11.451-25.526 25.526z"/>
        <path d="M44 33.193c0 18.303 14.89 33.193 33.193 33.193a32.99 32.99 0 0 0 19.022-6.016 34.174 34.174 0 0 1-3.888-3.41 28.012 28.012 0 0 1-15.135 4.426C61.647 61.386 49 48.739 49 33.193 49 17.647 61.647 5 77.193 5a28.022 28.022 0 0 1 15.135 4.425 34.164 34.164 0 0 1 3.887-3.41A33.003 33.003 0 0 0 77.193 0C58.89 0 44 14.89 44 33.193z"/>
        <path d="M64.81 44.95h19.925a33.632 33.632 0 0 1-1.09-3.534H68.344v-7.385l5.539-5.539.002.003 3.308-3.307 3.307 3.307.003-.003 2.237 2.238c.107-1.495.304-2.966.598-4.401l-3.642-3.642L83 19.381l-2.499-2.5-3.305 3.304-.003-.003-.003.003-3.305-3.305-2.499 2.5 3.304 3.304-9.88 9.88V44.95z"/>
    </g>
</symbol><symbol id="two_homes" viewBox="0 0 111.779 94.181">
    <g>
        <path d="M86.619 37.488l8.414-8.413-6.365-6.364-8.412 8.413-.008-.007-.008.008-8.414-8.414-6.365 6.364 8.414 8.414-10.812 10.812v-8.363l-25.16-25.161 8.414-8.413L39.952 0 31.54 8.413l-.008-.007-.008.008L23.11 0l-6.365 6.364 8.414 8.414L0 39.938V94.18h111.779V62.649l-25.16-25.161zM9 43.666l14.104-14.104.006.007 8.421-8.42 8.421 8.42.008-.008 14.104 14.104V62.44H9V43.666zM9 71.47h18.031v13.711H9V71.47zm27.031 13.711V71.47h18.032v13.711H36.031zm66.748 0H63.063V61.029l8.757-8.757.006.008 8.421-8.42 8.421 8.42.008-.008 14.104 14.104v18.805z"/>
        <path d="M27.031 31.6h9v24.63h-9zM67.884 69.229h24.629v9H67.884zM13.489 43.229h9v13h-9zM40.573 43.229h9v13h-9z"/>
    </g>
</symbol><symbol id="up-arrow" viewBox="0 0 405.33337 512">
    <path d="M210.098 3.136c-4.16-4.171-10.914-4.179-15.085-.019l-.019.019-192 192c-4.093 4.237-3.975 10.99.262 15.083 4.134 3.992 10.687 3.992 14.82 0L191.88 36.416v464.917c0 5.891 4.776 10.667 10.667 10.667s10.667-4.776 10.667-10.667V36.416l173.781 173.781c4.093 4.237 10.845 4.355 15.083.262 4.237-4.093 4.354-10.845.262-15.083a10.787 10.787 0 0 0-.262-.262z"/>
    <path d="M385.669 213.5a10.127 10.127 0 0 1-7.181-2.97L203.096 34.7 27.704 210.53a10.126 10.126 0 0 1-14.343-.249c-3.796-3.94-3.796-10.186 0-14.126L195.935 13.147a10.126 10.126 0 0 1 14.342 0L392.85 196.155c3.955 3.977 3.945 10.415-.023 14.379a10.13 10.13 0 0 1-7.158 2.965z" stroke-width="19.369"/>
    <path d="M202.546 502.094c-5.92 0-10.72-4.58-10.72-10.23V21.292c0-5.65 4.8-10.23 10.72-10.23 5.92 0 10.72 4.58 10.72 10.23v470.573c0 5.648-4.8 10.229-10.72 10.229z" stroke-width="19.804"/>
</symbol><symbol id="utp_10year" viewBox="0 0 86.427 89.257">
    <path d="M63.998 62.47h13.429V43.666L54.896 21.149 33.68 42.35l-6.302-6.428 21.145-21.145-8.413-8.413L46.474 0l8.413 8.413.007-.007.009.008L63.317 0l6.364 6.364-8.414 8.414 25.16 25.16V71.47H63.998z"/>
    <g>
        <path d="M15.684 52.28v36.354H7.271V59.031H0V52.28h15.684zM29.551 87.024c-2.355-1.488-4.199-3.644-5.531-6.467-1.333-2.82-2-6.188-2-10.101 0-3.912.667-7.279 2-10.102 1.333-2.821 3.176-4.978 5.531-6.466 2.354-1.488 5.038-2.233 8.05-2.233s5.696.745 8.05 2.233 4.198 3.645 5.531 6.466c1.332 2.822 1.999 6.189 1.999 10.102 0 3.913-.667 7.28-1.999 10.101-1.333 2.823-3.177 4.979-5.531 6.467s-5.038 2.232-8.05 2.232-5.696-.743-8.05-2.232zm13.269-7.738c1.263-1.904 1.896-4.848 1.896-8.829s-.633-6.925-1.896-8.829c-1.265-1.904-3.004-2.856-5.22-2.856-2.181 0-3.904.952-5.167 2.856-1.264 1.904-1.896 4.848-1.896 8.829s.631 6.925 1.896 8.829c1.264 1.904 2.986 2.856 5.167 2.856 2.216.001 3.956-.952 5.22-2.856z"/>
    </g>
</symbol><symbol id="viber" viewBox="0 0 485.56833 512.06433">
    <path d="M430.81 49.862c-12.7-11.7-64.1-49-178.7-49.5 0 0-135.1-8.1-200.9 52.3-36.6 36.6-49.5 90.3-50.9 156.8-1.4 66.5-3.1 191.1 117 224.9h.1l-.1 51.6s-.8 20.9 13 25.1c16.6 5.2 26.4-10.7 42.3-27.8 8.7-9.4 20.7-23.2 29.8-33.7 82.2 6.9 145.3-8.9 152.5-11.2 16.6-5.4 110.5-17.4 125.7-142 15.8-128.6-7.6-209.8-49.8-246.5zm13.9 237.1c-12.9 104-89 110.6-103 115.1-6 1.9-61.5 15.7-131.2 11.2 0 0-52 62.7-68.2 79-5.3 5.3-11.1 4.8-11-5.7 0-6.9.4-85.7.4-85.7-.1 0-.1 0 0 0-101.8-28.2-95.8-134.3-94.7-189.8 1.1-55.5 11.6-101 42.6-131.6 55.7-50.5 170.4-43 170.4-43 96.9.4 143.3 29.6 154.1 39.4 35.7 30.6 53.9 103.8 40.6 211.1zm-139-80.8c.4 8.6-12.5 9.2-12.9.6-1.1-22-11.4-32.7-32.6-33.9-8.6-.5-7.8-13.4.7-12.9 27.9 1.5 43.4 17.5 44.8 46.2zm20.3 11.3c1-42.4-25.5-75.6-75.8-79.3-8.5-.6-7.6-13.5.9-12.9 58 4.2 88.9 44.1 87.8 92.5-.1 8.6-13.1 8.2-12.9-.3zm47 13.4c.1 8.6-12.9 8.7-12.9.1-.6-81.5-54.9-125.9-120.8-126.4-8.5-.1-8.5-12.9 0-12.9 73.7.5 133 51.4 133.7 139.2zm-11.3 98.1v.2c-10.8 19-31 40-51.8 33.3l-.2-.3c-21.1-5.9-70.8-31.5-102.2-56.5-16.2-12.8-31-27.9-42.4-42.4-10.3-12.9-20.7-28.2-30.8-46.6-21.3-38.5-26-55.7-26-55.7-6.7-20.8 14.2-41 33.3-51.8h.2c9.2-4.8 18-3.2 23.9 3.9 0 0 12.4 14.8 17.7 22.1 5 6.8 11.7 17.7 15.2 23.8 6.1 10.9 2.3 22-3.7 26.6l-12 9.6c-6.1 4.9-5.3 14-5.3 14s17.8 67.3 84.3 84.3c0 0 9.1.8 14-5.3l9.6-12c4.6-6 15.7-9.8 26.6-3.7 14.7 8.3 33.4 21.2 45.8 32.9 7 5.7 8.6 14.4 3.8 23.6z"/>
</symbol><symbol id="whatsapp" viewBox="0 0 448 448">
    <path d="M380.9 65.1C339 23.1 283.2 0 223.9 0 101.5 0 1.9 99.6 1.9 222c0 39.1 10.2 77.3 29.6 111L0 448l117.7-30.9c32.4 17.7 68.9 27 106.1 27h.1c122.3 0 224.1-99.6 224.1-222 0-59.3-25.2-115-67.1-157zm-157 341.6c-33.2 0-65.7-8.9-94-25.7l-6.7-4-69.8 18.3L72 327.2l-4.4-7c-18.5-29.4-28.2-63.3-28.2-98.2 0-101.7 82.8-184.5 184.6-184.5 49.3 0 95.6 19.2 130.4 54.1 34.8 34.9 56.2 81.2 56.1 130.5 0 101.8-84.9 184.6-186.6 184.6zm101.2-138.2c-5.5-2.8-32.8-16.2-37.9-18-5.1-1.9-8.8-2.8-12.5 2.8-3.7 5.6-14.3 18-17.6 21.8-3.2 3.7-6.5 4.2-12 1.4-32.6-16.3-54-29.1-75.5-66-5.7-9.8 5.7-9.1 16.3-30.3 1.8-3.7.9-6.9-.5-9.7-1.4-2.8-12.5-30.1-17.1-41.2-4.5-10.8-9.1-9.3-12.5-9.5-3.2-.2-6.9-.2-10.6-.2-3.7 0-9.7 1.4-14.8 6.9-5.1 5.6-19.4 19-19.4 46.3 0 27.3 19.9 53.7 22.6 57.4 2.8 3.7 39.1 59.7 94.8 83.8 35.2 15.2 49 16.5 66.6 13.9 10.7-1.6 32.8-13.4 37.4-26.4 4.6-13 4.6-24.1 3.2-26.4-1.3-2.5-5-3.9-10.5-6.6z"/>
</symbol></svg>